<svg xmlns="http://www.w3.org/2000/svg" xmlns:xlink="http://www.w3.org/1999/xlink" width="1080" zoomAndPan="magnify" viewBox="0 0 810 374.999991" height="500" preserveAspectRatio="xMidYMid meet" version="1.0"><defs><g/><clipPath id="3c9ba831ce"><path d="M 38.316406 51.898438 L 104.59375 51.898438 L 104.59375 106.285156 L 38.316406 106.285156 Z M 38.316406 51.898438 " clip-rule="nonzero"/></clipPath><clipPath id="a5625006d0"><path d="M 55.675781 51.898438 L 87.203125 51.898438 C 96.789062 51.898438 104.5625 59.671875 104.5625 69.253906 L 104.5625 88.929688 C 104.5625 98.511719 96.789062 106.285156 87.203125 106.285156 L 55.675781 106.285156 C 46.09375 106.285156 38.316406 98.511719 38.316406 88.929688 L 38.316406 69.253906 C 38.316406 59.671875 46.09375 51.898438 55.675781 51.898438 Z M 55.675781 51.898438 " clip-rule="nonzero"/></clipPath><clipPath id="d34ae32114"><path d="M 337 55 L 688 55 L 688 295 L 337 295 Z M 337 55 " clip-rule="nonzero"/></clipPath><clipPath id="577a265648"><path d="M 693.015625 63.109375 L 683.3125 317.460938 L 330.582031 304.023438 L 340.289062 49.671875 Z M 693.015625 63.109375 " clip-rule="nonzero"/></clipPath><clipPath id="3e7aa8785b"><path d="M 693.015625 63.109375 L 683.3125 317.460938 L 330.582031 304.023438 L 340.289062 49.671875 Z M 693.015625 63.109375 " clip-rule="nonzero"/></clipPath><clipPath id="6e4cf98d25"><path d="M 614 60 L 688 60 L 688 162 L 614 162 Z M 614 60 " clip-rule="nonzero"/></clipPath><clipPath id="8c26d1ec1e"><path d="M 693.078125 62.957031 L 689.339844 161.210938 L 614.171875 158.347656 L 617.90625 60.09375 Z M 693.078125 62.957031 " clip-rule="nonzero"/></clipPath><clipPath id="13f2d62f2f"><path d="M 693.078125 62.957031 L 683.371094 317.3125 L 330.644531 303.84375 L 340.347656 49.488281 Z M 693.078125 62.957031 " clip-rule="nonzero"/></clipPath><clipPath id="f3e1174228"><path d="M 615 202 L 688 202 L 688 269 L 615 269 Z M 615 202 " clip-rule="nonzero"/></clipPath><clipPath id="3071dce1a2"><path d="M 687.652344 205.046875 L 685.238281 268.621094 L 615.828125 265.96875 L 618.269531 202.398438 Z M 687.652344 205.046875 " clip-rule="nonzero"/></clipPath><clipPath id="6dad0ad199"><path d="M 693.078125 62.988281 L 683.371094 317.339844 L 330.644531 303.902344 L 340.320312 49.550781 Z M 693.078125 62.988281 " clip-rule="nonzero"/></clipPath><clipPath id="d44d77af85"><path d="M 430 55 L 549 55 L 549 116 L 430 116 Z M 430 55 " clip-rule="nonzero"/></clipPath><clipPath id="86c45018ed"><path d="M 548.433594 57.414062 L 546.234375 115.230469 L 430.585938 110.832031 L 432.789062 53.015625 Z M 548.433594 57.414062 " clip-rule="nonzero"/></clipPath><clipPath id="d202ec35fb"><path d="M 693.078125 62.925781 L 683.371094 317.28125 L 330.644531 303.84375 L 340.347656 49.488281 Z M 693.078125 62.925781 " clip-rule="nonzero"/></clipPath><clipPath id="0e2669a696"><path d="M 337 206 L 384 206 L 384 266 L 337 266 Z M 337 206 " clip-rule="nonzero"/></clipPath><clipPath id="0c55c41ccd"><path d="M 383.449219 208.152344 L 381.21875 265.96875 L 329.195312 263.980469 L 331.398438 206.164062 Z M 383.449219 208.152344 " clip-rule="nonzero"/></clipPath><clipPath id="11b6dfacb4"><path d="M 693.046875 62.957031 L 683.339844 317.3125 L 330.582031 303.875 L 340.289062 49.519531 Z M 693.046875 62.957031 " clip-rule="nonzero"/></clipPath></defs><path fill="#121221" d="M 246.34375 106.136719 L 198.230469 106.136719 C 197.695312 106.136719 197.164062 106.160156 196.628906 106.214844 C 196.097656 106.265625 195.570312 106.34375 195.046875 106.449219 C 194.519531 106.554688 194.003906 106.683594 193.492188 106.839844 C 192.980469 106.992188 192.476562 107.171875 191.980469 107.378906 C 191.488281 107.582031 191.003906 107.8125 190.53125 108.0625 C 190.0625 108.316406 189.601562 108.589844 189.15625 108.886719 C 188.714844 109.183594 188.285156 109.5 187.871094 109.839844 C 187.457031 110.179688 187.0625 110.539062 186.683594 110.917969 C 186.304688 111.296875 185.945312 111.691406 185.605469 112.105469 C 185.265625 112.515625 184.949219 112.945312 184.652344 113.390625 C 184.355469 113.835938 184.078125 114.292969 183.828125 114.765625 C 183.574219 115.238281 183.347656 115.71875 183.144531 116.214844 C 182.9375 116.707031 182.757812 117.210938 182.601562 117.722656 C 182.449219 118.234375 182.316406 118.75 182.214844 119.277344 C 182.109375 119.800781 182.03125 120.328125 181.976562 120.859375 C 181.925781 121.394531 181.898438 121.925781 181.898438 122.460938 L 181.898438 301.320312 C 181.898438 301.851562 181.875 302.386719 181.820312 302.917969 C 181.769531 303.449219 181.691406 303.980469 181.585938 304.503906 C 181.480469 305.027344 181.351562 305.546875 181.195312 306.058594 C 181.039062 306.570312 180.859375 307.074219 180.65625 307.566406 C 180.453125 308.058594 180.222656 308.542969 179.972656 309.015625 C 179.71875 309.488281 179.445312 309.945312 179.148438 310.390625 C 178.851562 310.832031 178.53125 311.261719 178.191406 311.675781 C 177.851562 312.089844 177.496094 312.484375 177.117188 312.863281 C 176.738281 313.242188 176.34375 313.601562 175.929688 313.9375 C 175.515625 314.277344 175.085938 314.597656 174.640625 314.894531 C 174.195312 315.191406 173.738281 315.464844 173.265625 315.71875 C 172.792969 315.96875 172.3125 316.199219 171.816406 316.402344 C 171.324219 316.605469 170.820312 316.785156 170.308594 316.941406 C 169.796875 317.097656 169.277344 317.226562 168.753906 317.332031 C 168.230469 317.433594 167.699219 317.515625 167.167969 317.566406 C 166.636719 317.617188 166.101562 317.644531 165.566406 317.644531 L 136.867188 317.644531 C 136.332031 317.644531 135.796875 317.617188 135.265625 317.566406 C 134.734375 317.515625 134.203125 317.433594 133.679688 317.332031 C 133.15625 317.226562 132.636719 317.097656 132.125 316.941406 C 131.613281 316.785156 131.109375 316.605469 130.617188 316.402344 C 130.121094 316.199219 129.640625 315.96875 129.167969 315.71875 C 128.695312 315.464844 128.238281 315.191406 127.792969 314.894531 C 127.347656 314.597656 126.917969 314.277344 126.503906 313.9375 C 126.09375 313.601562 125.695312 313.242188 125.316406 312.863281 C 124.941406 312.484375 124.582031 312.089844 124.242188 311.675781 C 123.902344 311.261719 123.585938 310.832031 123.285156 310.390625 C 122.988281 309.945312 122.714844 309.488281 122.464844 309.015625 C 122.210938 308.542969 121.980469 308.058594 121.777344 307.566406 C 121.574219 307.074219 121.394531 306.570312 121.238281 306.058594 C 121.082031 305.546875 120.953125 305.027344 120.847656 304.503906 C 120.742188 303.980469 120.664062 303.449219 120.613281 302.917969 C 120.5625 302.386719 120.535156 301.851562 120.535156 301.320312 L 120.535156 122.460938 C 120.535156 121.925781 120.507812 121.394531 120.457031 120.859375 C 120.402344 120.328125 120.324219 119.800781 120.21875 119.277344 C 120.117188 118.75 119.988281 118.234375 119.832031 117.722656 C 119.675781 117.210938 119.496094 116.707031 119.292969 116.214844 C 119.085938 115.71875 118.859375 115.238281 118.605469 114.765625 C 118.355469 114.292969 118.078125 113.835938 117.78125 113.390625 C 117.484375 112.945312 117.167969 112.515625 116.828125 112.105469 C 116.488281 111.691406 116.128906 111.296875 115.75 110.917969 C 115.371094 110.539062 114.976562 110.179688 114.5625 109.839844 C 114.148438 109.5 113.722656 109.183594 113.277344 108.886719 C 112.832031 108.589844 112.375 108.316406 111.902344 108.0625 C 111.429688 107.8125 110.945312 107.582031 110.453125 107.378906 C 109.957031 107.171875 109.457031 106.992188 108.945312 106.839844 C 108.433594 106.683594 107.914062 106.554688 107.390625 106.449219 C 106.863281 106.34375 106.335938 106.265625 105.804688 106.214844 C 105.269531 106.160156 104.738281 106.136719 104.203125 106.136719 L 55.730469 106.136719 C 55.195312 106.136719 54.660156 106.109375 54.128906 106.054688 C 53.597656 106.003906 53.066406 105.925781 52.542969 105.820312 C 52.019531 105.71875 51.5 105.585938 50.988281 105.433594 C 50.476562 105.277344 49.972656 105.097656 49.480469 104.890625 C 48.984375 104.6875 48.503906 104.460938 48.03125 104.207031 C 47.558594 103.957031 47.101562 103.679688 46.65625 103.382812 C 46.210938 103.085938 45.78125 102.769531 45.367188 102.429688 C 44.957031 102.089844 44.558594 101.730469 44.179688 101.351562 C 43.804688 100.976562 43.445312 100.578125 43.105469 100.164062 C 42.765625 99.753906 42.449219 99.324219 42.148438 98.878906 C 41.851562 98.433594 41.578125 97.976562 41.328125 97.503906 C 41.074219 97.035156 40.84375 96.550781 40.640625 96.054688 C 40.4375 95.5625 40.257812 95.058594 40.101562 94.546875 C 39.945312 94.035156 39.816406 93.519531 39.710938 92.992188 C 39.605469 92.46875 39.527344 91.941406 39.476562 91.410156 C 39.425781 90.875 39.398438 90.34375 39.398438 89.808594 L 39.398438 68.589844 C 39.398438 68.054688 39.425781 67.519531 39.476562 66.988281 C 39.527344 66.457031 39.605469 65.929688 39.710938 65.40625 C 39.816406 64.878906 39.945312 64.363281 40.101562 63.851562 C 40.257812 63.339844 40.4375 62.835938 40.640625 62.339844 C 40.84375 61.847656 41.074219 61.363281 41.328125 60.894531 C 41.578125 60.421875 41.851562 59.964844 42.148438 59.519531 C 42.449219 59.074219 42.765625 58.644531 43.105469 58.230469 C 43.445312 57.820312 43.804688 57.421875 44.179688 57.046875 C 44.558594 56.667969 44.957031 56.308594 45.367188 55.96875 C 45.78125 55.628906 46.210938 55.3125 46.65625 55.015625 C 47.101562 54.71875 47.558594 54.441406 48.03125 54.191406 C 48.503906 53.9375 48.984375 53.710938 49.480469 53.507812 C 49.972656 53.300781 50.476562 53.121094 50.988281 52.964844 C 51.5 52.8125 52.019531 52.679688 52.542969 52.578125 C 53.066406 52.472656 53.597656 52.394531 54.128906 52.34375 C 54.660156 52.289062 55.195312 52.261719 55.730469 52.261719 L 246.34375 52.261719 C 246.878906 52.261719 247.410156 52.289062 247.945312 52.34375 C 248.476562 52.394531 249.003906 52.472656 249.527344 52.578125 C 250.054688 52.679688 250.570312 52.8125 251.082031 52.964844 C 251.59375 53.121094 252.097656 53.300781 252.59375 53.507812 C 253.085938 53.710938 253.570312 53.9375 254.042969 54.191406 C 254.511719 54.441406 254.972656 54.71875 255.417969 55.015625 C 255.859375 55.3125 256.289062 55.628906 256.703125 55.96875 C 257.117188 56.308594 257.511719 56.667969 257.890625 57.046875 C 258.269531 57.421875 258.628906 57.820312 258.96875 58.230469 C 259.308594 58.644531 259.625 59.074219 259.921875 59.519531 C 260.21875 59.964844 260.492188 60.421875 260.746094 60.894531 C 261 61.363281 261.226562 61.847656 261.429688 62.339844 C 261.636719 62.835938 261.816406 63.339844 261.972656 63.851562 C 262.125 64.363281 262.257812 64.878906 262.359375 65.40625 C 262.464844 65.929688 262.542969 66.457031 262.597656 66.988281 C 262.648438 67.519531 262.675781 68.054688 262.675781 68.589844 L 262.675781 89.808594 C 262.675781 90.34375 262.648438 90.875 262.597656 91.410156 C 262.542969 91.941406 262.464844 92.46875 262.359375 92.992188 C 262.257812 93.519531 262.125 94.035156 261.972656 94.546875 C 261.816406 95.058594 261.636719 95.5625 261.429688 96.054688 C 261.226562 96.550781 261 97.035156 260.746094 97.503906 C 260.492188 97.976562 260.21875 98.433594 259.921875 98.878906 C 259.625 99.324219 259.304688 99.753906 258.96875 100.167969 C 258.628906 100.578125 258.269531 100.976562 257.890625 101.351562 C 257.511719 101.730469 257.117188 102.089844 256.703125 102.429688 C 256.289062 102.769531 255.859375 103.085938 255.417969 103.382812 C 254.972656 103.679688 254.511719 103.957031 254.042969 104.207031 C 253.570312 104.460938 253.085938 104.6875 252.59375 104.890625 C 252.097656 105.097656 251.59375 105.277344 251.082031 105.433594 C 250.570312 105.585938 250.054688 105.71875 249.527344 105.820312 C 249.003906 105.925781 248.476562 106.003906 247.945312 106.054688 C 247.410156 106.109375 246.878906 106.136719 246.34375 106.136719 Z M 246.34375 106.136719 " fill-opacity="1" fill-rule="nonzero"/><path fill="#121221" d="M 475.023438 265.867188 C 474.40625 268.523438 473.628906 271.074219 472.6875 273.523438 C 469.464844 281.90625 460.097656 293.554688 452.925781 298.988281 C 450.945312 300.492188 448.863281 301.898438 446.679688 303.21875 C 438.96875 307.867188 425.058594 312.777344 416.246094 314.664062 C 411.949219 315.582031 407.542969 316.289062 403.023438 316.78125 C 394.0625 317.761719 379.410156 317.644531 370.390625 317.644531 L 273.695312 317.644531 C 273.160156 317.644531 272.625 317.617188 272.09375 317.566406 C 271.558594 317.515625 271.03125 317.433594 270.507812 317.332031 C 269.984375 317.226562 269.464844 317.097656 268.953125 316.941406 C 268.441406 316.785156 267.9375 316.605469 267.445312 316.402344 C 266.949219 316.199219 266.464844 315.96875 265.996094 315.71875 C 265.523438 315.464844 265.066406 315.191406 264.621094 314.894531 C 264.175781 314.597656 263.746094 314.277344 263.332031 313.9375 C 262.917969 313.601562 262.523438 313.242188 262.144531 312.863281 C 261.765625 312.484375 261.410156 312.089844 261.070312 311.675781 C 260.730469 311.261719 260.410156 310.832031 260.113281 310.390625 C 259.816406 309.945312 259.542969 309.488281 259.289062 309.015625 C 259.039062 308.542969 258.808594 308.058594 258.605469 307.566406 C 258.398438 307.074219 258.21875 306.570312 258.066406 306.058594 C 257.910156 305.546875 257.78125 305.027344 257.675781 304.503906 C 257.570312 303.980469 257.492188 303.449219 257.441406 302.917969 C 257.386719 302.386719 257.363281 301.851562 257.363281 301.320312 L 257.363281 68.589844 C 257.363281 68.054688 257.386719 67.519531 257.441406 66.988281 C 257.492188 66.457031 257.570312 65.929688 257.675781 65.40625 C 257.78125 64.878906 257.910156 64.363281 258.066406 63.851562 C 258.21875 63.339844 258.398438 62.835938 258.605469 62.339844 C 258.808594 61.847656 259.039062 61.363281 259.289062 60.894531 C 259.542969 60.421875 259.816406 59.964844 260.113281 59.519531 C 260.410156 59.074219 260.730469 58.644531 261.070312 58.230469 C 261.410156 57.820312 261.765625 57.421875 262.144531 57.046875 C 262.523438 56.667969 262.917969 56.308594 263.332031 55.96875 C 263.746094 55.628906 264.175781 55.3125 264.621094 55.015625 C 265.066406 54.71875 265.523438 54.441406 265.996094 54.191406 C 266.464844 53.9375 266.949219 53.710938 267.445312 53.507812 C 267.9375 53.300781 268.441406 53.121094 268.953125 52.964844 C 269.464844 52.8125 269.984375 52.679688 270.507812 52.578125 C 271.03125 52.472656 271.558594 52.394531 272.09375 52.34375 C 272.625 52.289062 273.160156 52.261719 273.695312 52.261719 L 388.714844 52.261719 C 397.734375 52.261719 412.535156 51.949219 421.1875 54.390625 C 421.75 54.550781 422.308594 54.71875 422.863281 54.894531 C 431.421875 57.625 443.511719 66.472656 449.226562 73.417969 C 449.371094 73.597656 449.515625 73.773438 449.664062 73.957031 C 455.300781 80.964844 461.527344 94.441406 463.585938 103.203125 C 463.660156 103.519531 463.734375 103.839844 463.804688 104.15625 C 465.75 112.945312 465.769531 127.785156 463.664062 136.53125 C 463.292969 138.074219 462.871094 139.605469 462.390625 141.125 C 459.691406 149.710938 452.316406 162.640625 445.9375 168.976562 C 444.488281 170.414062 442.964844 171.78125 441.359375 173.070312 C 434.359375 178.714844 434.640625 183.472656 442.554688 187.765625 C 445.941406 189.601562 449.109375 191.675781 452.058594 193.992188 C 459.136719 199.542969 468.226562 211.363281 471.5625 219.710938 C 473.265625 223.972656 474.550781 228.542969 475.421875 233.425781 C 477 242.289062 477.0625 257.105469 475.023438 265.867188 Z M 410.953125 222.195312 C 402.152344 211.710938 402.152344 211.710938 402.152344 211.710938 C 389.375 207.730469 389.375 207.730469 389.375 207.730469 L 334.9375 207.730469 C 334.402344 207.730469 333.871094 207.757812 333.335938 207.8125 C 332.804688 207.863281 332.277344 207.941406 331.75 208.046875 C 331.226562 208.148438 330.707031 208.28125 330.195312 208.433594 C 329.683594 208.589844 329.183594 208.769531 328.6875 208.976562 C 328.195312 209.179688 327.710938 209.40625 327.238281 209.660156 C 326.765625 209.910156 326.308594 210.1875 325.863281 210.484375 C 325.417969 210.78125 324.992188 211.097656 324.578125 211.4375 C 324.164062 211.777344 323.769531 212.136719 323.390625 212.515625 C 323.011719 212.890625 322.652344 213.289062 322.3125 213.699219 C 321.972656 214.113281 321.65625 214.542969 321.359375 214.988281 C 321.0625 215.433594 320.785156 215.890625 320.535156 216.363281 C 320.28125 216.832031 320.054688 217.316406 319.847656 217.808594 C 319.644531 218.304688 319.464844 218.808594 319.308594 219.320312 C 319.152344 219.832031 319.023438 220.347656 318.921875 220.875 C 318.816406 221.398438 318.738281 221.925781 318.683594 222.457031 C 318.632812 222.988281 318.605469 223.523438 318.605469 224.058594 L 318.605469 249.375 C 318.605469 249.910156 318.632812 250.441406 318.683594 250.976562 C 318.738281 251.507812 318.816406 252.035156 318.921875 252.558594 C 319.023438 253.085938 319.152344 253.601562 319.308594 254.113281 C 319.464844 254.625 319.644531 255.128906 319.847656 255.621094 C 320.054688 256.117188 320.28125 256.601562 320.535156 257.070312 C 320.785156 257.542969 321.0625 258 321.359375 258.445312 C 321.65625 258.890625 321.972656 259.320312 322.3125 259.734375 C 322.652344 260.144531 323.011719 260.542969 323.390625 260.917969 C 323.769531 261.296875 324.164062 261.65625 324.578125 261.996094 C 324.992188 262.335938 325.417969 262.652344 325.863281 262.949219 C 326.308594 263.246094 326.765625 263.523438 327.238281 263.773438 C 327.710938 264.027344 328.195312 264.253906 328.6875 264.457031 C 329.183594 264.664062 329.683594 264.84375 330.195312 265 C 330.707031 265.152344 331.226562 265.285156 331.75 265.386719 C 332.277344 265.492188 332.804688 265.570312 333.335938 265.621094 C 333.871094 265.675781 334.402344 265.703125 334.9375 265.703125 L 370.390625 265.703125 C 379.410156 265.703125 393.882812 266.128906 400.707031 261.964844 C 410.59375 251.960938 410.59375 251.960938 410.59375 251.960938 C 414.332031 237.257812 414.332031 237.257812 414.332031 237.257812 Z M 318.605469 120.894531 L 318.605469 143.199219 C 318.605469 143.734375 318.632812 144.265625 318.683594 144.796875 C 318.738281 145.332031 318.816406 145.859375 318.921875 146.382812 C 319.023438 146.90625 319.152344 147.425781 319.308594 147.9375 C 319.464844 148.449219 319.644531 148.953125 319.847656 149.445312 C 320.054688 149.941406 320.28125 150.421875 320.535156 150.894531 C 320.785156 151.367188 321.0625 151.824219 321.359375 152.269531 C 321.65625 152.714844 321.972656 153.140625 322.3125 153.554688 C 322.652344 153.96875 323.011719 154.363281 323.390625 154.742188 C 323.769531 155.121094 324.164062 155.480469 324.578125 155.820312 C 324.992188 156.15625 325.417969 156.476562 325.863281 156.773438 C 326.308594 157.070312 326.765625 157.34375 327.238281 157.597656 C 327.710938 157.847656 328.195312 158.078125 328.6875 158.28125 C 329.183594 158.488281 329.683594 158.667969 330.195312 158.820312 C 330.707031 158.976562 331.226562 159.105469 331.75 159.210938 C 332.277344 159.316406 332.804688 159.394531 333.335938 159.445312 C 333.871094 159.5 334.402344 159.523438 334.9375 159.523438 L 362.554688 159.523438 C 371.574219 159.523438 385.066406 159.808594 391.425781 156.632812 C 400.949219 147.472656 400.949219 147.472656 400.949219 147.472656 C 404.6875 131.925781 404.6875 131.925781 404.6875 131.925781 C 401.429688 116.980469 401.429688 116.980469 401.429688 116.980469 C 392.992188 107.820312 392.992188 107.820312 392.992188 107.820312 C 381.054688 104.566406 381.054688 104.566406 381.054688 104.566406 L 334.9375 104.566406 C 334.402344 104.566406 333.871094 104.59375 333.335938 104.648438 C 332.804688 104.699219 332.277344 104.777344 331.75 104.882812 C 331.226562 104.984375 330.707031 105.117188 330.195312 105.269531 C 329.683594 105.425781 329.183594 105.605469 328.6875 105.8125 C 328.195312 106.015625 327.710938 106.242188 327.238281 106.496094 C 326.765625 106.75 326.308594 107.023438 325.863281 107.320312 C 325.417969 107.617188 324.992188 107.933594 324.578125 108.273438 C 324.164062 108.613281 323.769531 108.972656 323.390625 109.351562 C 323.011719 109.726562 322.652344 110.125 322.3125 110.539062 C 321.972656 110.949219 321.65625 111.378906 321.359375 111.824219 C 321.0625 112.269531 320.785156 112.726562 320.535156 113.199219 C 320.28125 113.667969 320.054688 114.152344 319.847656 114.648438 C 319.644531 115.140625 319.464844 115.644531 319.308594 116.15625 C 319.152344 116.667969 319.023438 117.183594 318.921875 117.710938 C 318.816406 118.234375 318.738281 118.761719 318.683594 119.292969 C 318.632812 119.828125 318.605469 120.359375 318.605469 120.894531 Z M 318.605469 120.894531 " fill-opacity="1" fill-rule="nonzero"/><path fill="#121221" d="M 512.34375 76.582031 C 512.300781 77.863281 512.277344 79.144531 512.234375 80.421875 C 512.40625 79.769531 512.59375 79.117188 512.792969 78.472656 C 512.632812 77.847656 512.472656 77.21875 512.34375 76.582031 Z M 501.417969 120.257812 C 500.882812 120.257812 500.351562 120.285156 499.820312 120.335938 C 499.285156 120.386719 498.757812 120.46875 498.234375 120.570312 C 497.707031 120.675781 497.191406 120.804688 496.679688 120.960938 C 496.167969 121.117188 495.664062 121.296875 495.167969 121.5 C 494.675781 121.707031 494.191406 121.933594 493.722656 122.183594 C 493.25 122.4375 492.789062 122.710938 492.347656 123.007812 C 491.902344 123.304688 491.472656 123.625 491.058594 123.964844 C 490.644531 124.304688 490.25 124.660156 489.871094 125.039062 C 489.492188 125.417969 489.132812 125.8125 488.796875 126.226562 C 488.457031 126.640625 488.136719 127.070312 487.839844 127.515625 C 487.542969 127.957031 487.269531 128.417969 487.015625 128.886719 C 486.765625 129.359375 486.535156 129.84375 486.332031 130.335938 C 486.125 130.832031 485.945312 131.332031 485.792969 131.84375 C 485.636719 132.355469 485.507812 132.875 485.402344 133.398438 C 485.296875 133.921875 485.21875 134.453125 485.167969 134.984375 C 485.113281 135.515625 485.089844 136.050781 485.089844 136.585938 L 485.089844 300.136719 C 485.089844 300.671875 485.113281 301.203125 485.167969 301.734375 C 485.21875 302.269531 485.296875 302.796875 485.402344 303.320312 C 485.507812 303.84375 485.636719 304.363281 485.792969 304.875 C 485.945312 305.386719 486.125 305.890625 486.332031 306.382812 C 486.535156 306.878906 486.765625 307.359375 487.015625 307.832031 C 487.269531 308.304688 487.542969 308.761719 487.839844 309.207031 C 488.136719 309.652344 488.457031 310.078125 488.796875 310.492188 C 489.132812 310.90625 489.492188 311.300781 489.871094 311.679688 C 490.25 312.058594 490.644531 312.417969 491.058594 312.757812 C 491.472656 313.09375 491.902344 313.414062 492.347656 313.710938 C 492.789062 314.007812 493.25 314.28125 493.722656 314.535156 C 494.191406 314.785156 494.675781 315.015625 495.167969 315.21875 C 495.664062 315.425781 496.167969 315.605469 496.679688 315.757812 C 497.191406 315.914062 497.707031 316.042969 498.234375 316.148438 C 498.757812 316.253906 499.285156 316.332031 499.820312 316.382812 C 500.351562 316.4375 500.882812 316.460938 501.417969 316.460938 L 528.554688 316.460938 C 529.089844 316.460938 529.621094 316.4375 530.15625 316.382812 C 530.6875 316.332031 531.214844 316.253906 531.738281 316.148438 C 532.265625 316.042969 532.78125 315.914062 533.292969 315.757812 C 533.808594 315.605469 534.308594 315.425781 534.804688 315.21875 C 535.296875 315.015625 535.78125 314.785156 536.253906 314.535156 C 536.726562 314.28125 537.183594 314.007812 537.628906 313.710938 C 538.074219 313.414062 538.5 313.097656 538.914062 312.757812 C 539.328125 312.417969 539.722656 312.058594 540.101562 311.679688 C 540.480469 311.300781 540.839844 310.90625 541.179688 310.492188 C 541.519531 310.082031 541.835938 309.652344 542.132812 309.207031 C 542.429688 308.761719 542.707031 308.304688 542.957031 307.832031 C 543.210938 307.359375 543.4375 306.878906 543.644531 306.382812 C 543.847656 305.890625 544.027344 305.386719 544.183594 304.875 C 544.339844 304.363281 544.46875 303.84375 544.574219 303.320312 C 544.675781 302.796875 544.753906 302.269531 544.808594 301.734375 C 544.859375 301.203125 544.886719 300.671875 544.886719 300.136719 L 544.886719 136.585938 C 544.886719 136.050781 544.859375 135.515625 544.808594 134.984375 C 544.753906 134.453125 544.675781 133.921875 544.574219 133.398438 C 544.46875 132.875 544.339844 132.355469 544.183594 131.84375 C 544.027344 131.332031 543.847656 130.832031 543.644531 130.335938 C 543.4375 129.84375 543.210938 129.359375 542.957031 128.886719 C 542.707031 128.417969 542.429688 127.957031 542.132812 127.511719 C 541.835938 127.070312 541.519531 126.640625 541.179688 126.226562 C 540.839844 125.8125 540.480469 125.417969 540.101562 125.039062 C 539.722656 124.660156 539.328125 124.300781 538.914062 123.964844 C 538.5 123.625 538.074219 123.304688 537.628906 123.007812 C 537.183594 122.710938 536.726562 122.4375 536.253906 122.183594 C 535.78125 121.933594 535.296875 121.703125 534.804688 121.5 C 534.308594 121.296875 533.808594 121.117188 533.292969 120.960938 C 532.78125 120.804688 532.265625 120.675781 531.738281 120.570312 C 531.214844 120.464844 530.6875 120.386719 530.15625 120.335938 C 529.621094 120.285156 529.089844 120.257812 528.554688 120.257812 Z M 501.417969 120.257812 " fill-opacity="1" fill-rule="nonzero"/><path fill="#121221" d="M 773.351562 264.6875 C 772.734375 267.339844 771.957031 269.890625 771.015625 272.339844 C 767.792969 280.726562 758.425781 292.375 751.253906 297.808594 C 749.273438 299.308594 747.191406 300.71875 745.007812 302.035156 C 737.296875 306.683594 723.386719 311.597656 714.574219 313.480469 C 710.277344 314.402344 705.871094 315.105469 701.351562 315.597656 C 692.390625 316.578125 677.738281 316.460938 668.71875 316.460938 L 572.023438 316.460938 C 571.488281 316.460938 570.953125 316.4375 570.421875 316.382812 C 569.890625 316.332031 569.359375 316.253906 568.835938 316.148438 C 568.3125 316.042969 567.792969 315.914062 567.28125 315.757812 C 566.769531 315.605469 566.265625 315.425781 565.773438 315.21875 C 565.277344 315.015625 564.796875 314.785156 564.324219 314.535156 C 563.851562 314.28125 563.394531 314.007812 562.949219 313.710938 C 562.503906 313.414062 562.074219 313.097656 561.660156 312.757812 C 561.246094 312.417969 560.851562 312.058594 560.472656 311.679688 C 560.09375 311.300781 559.738281 310.90625 559.398438 310.492188 C 559.058594 310.082031 558.738281 309.652344 558.441406 309.207031 C 558.144531 308.761719 557.871094 308.304688 557.617188 307.832031 C 557.367188 307.359375 557.136719 306.878906 556.933594 306.382812 C 556.730469 305.890625 556.546875 305.386719 556.394531 304.875 C 556.238281 304.363281 556.109375 303.847656 556.003906 303.320312 C 555.898438 302.796875 555.820312 302.269531 555.769531 301.738281 C 555.714844 301.203125 555.691406 300.671875 555.691406 300.136719 L 555.691406 67.40625 C 555.691406 66.871094 555.714844 66.339844 555.769531 65.808594 C 555.820312 65.273438 555.898438 64.746094 556.003906 64.222656 C 556.109375 63.699219 556.238281 63.179688 556.394531 62.667969 C 556.546875 62.15625 556.730469 61.652344 556.933594 61.160156 C 557.136719 60.664062 557.367188 60.183594 557.617188 59.710938 C 557.871094 59.238281 558.144531 58.78125 558.441406 58.335938 C 558.738281 57.890625 559.058594 57.464844 559.398438 57.050781 C 559.738281 56.636719 560.09375 56.242188 560.472656 55.863281 C 560.851562 55.484375 561.246094 55.125 561.660156 54.785156 C 562.074219 54.449219 562.503906 54.128906 562.949219 53.832031 C 563.394531 53.535156 563.851562 53.261719 564.324219 53.007812 C 564.796875 52.757812 565.277344 52.527344 565.773438 52.324219 C 566.265625 52.117188 566.769531 51.9375 567.28125 51.785156 C 567.792969 51.628906 568.3125 51.5 568.835938 51.394531 C 569.359375 51.289062 569.890625 51.210938 570.421875 51.160156 C 570.953125 51.105469 571.488281 51.082031 572.023438 51.082031 L 687.042969 51.082031 C 696.0625 51.082031 710.863281 50.765625 719.515625 53.210938 C 720.078125 53.367188 720.640625 53.535156 721.191406 53.714844 C 729.75 56.441406 741.839844 65.289062 747.554688 72.234375 C 747.699219 72.414062 747.847656 72.59375 747.992188 72.773438 C 753.628906 79.78125 759.855469 93.257812 761.914062 102.019531 C 761.988281 102.339844 762.0625 102.65625 762.132812 102.976562 C 764.078125 111.761719 764.097656 126.605469 761.992188 135.351562 C 761.621094 136.890625 761.199219 138.421875 760.71875 139.941406 C 758.019531 148.527344 750.644531 161.457031 744.265625 167.792969 C 742.816406 169.230469 741.292969 170.597656 739.6875 171.890625 C 732.6875 177.535156 732.96875 182.289062 740.882812 186.582031 C 744.269531 188.417969 747.4375 190.492188 750.386719 192.808594 C 757.464844 198.359375 766.554688 210.183594 769.890625 218.527344 C 771.59375 222.789062 772.882812 227.359375 773.75 232.242188 C 775.332031 241.105469 775.390625 255.921875 773.351562 264.6875 Z M 709.285156 221.011719 C 700.484375 210.527344 700.484375 210.527344 700.484375 210.527344 C 687.703125 206.550781 687.703125 206.550781 687.703125 206.550781 L 633.265625 206.550781 C 632.730469 206.550781 632.199219 206.574219 631.664062 206.628906 C 631.132812 206.679688 630.605469 206.757812 630.082031 206.863281 C 629.554688 206.96875 629.039062 207.097656 628.527344 207.253906 C 628.015625 207.40625 627.511719 207.585938 627.015625 207.792969 C 626.523438 207.996094 626.039062 208.226562 625.566406 208.476562 C 625.097656 208.730469 624.636719 209.003906 624.191406 209.300781 C 623.75 209.597656 623.320312 209.917969 622.90625 210.253906 C 622.492188 210.59375 622.097656 210.953125 621.71875 211.332031 C 621.339844 211.710938 620.980469 212.105469 620.640625 212.519531 C 620.300781 212.933594 619.984375 213.359375 619.6875 213.804688 C 619.390625 214.25 619.113281 214.707031 618.863281 215.179688 C 618.609375 215.652344 618.382812 216.132812 618.179688 216.628906 C 617.972656 217.121094 617.792969 217.625 617.636719 218.136719 C 617.484375 218.648438 617.351562 219.167969 617.25 219.691406 C 617.144531 220.214844 617.066406 220.742188 617.011719 221.277344 C 616.960938 221.808594 616.933594 222.339844 616.933594 222.875 L 616.933594 248.191406 C 616.933594 248.726562 616.960938 249.261719 617.011719 249.792969 C 617.066406 250.324219 617.144531 250.851562 617.25 251.378906 C 617.351562 251.902344 617.484375 252.421875 617.636719 252.933594 C 617.792969 253.445312 617.972656 253.945312 618.179688 254.441406 C 618.382812 254.933594 618.609375 255.417969 618.863281 255.890625 C 619.113281 256.359375 619.390625 256.820312 619.6875 257.261719 C 619.984375 257.707031 620.300781 258.136719 620.640625 258.550781 C 620.980469 258.964844 621.339844 259.359375 621.71875 259.738281 C 622.097656 260.113281 622.492188 260.472656 622.90625 260.8125 C 623.320312 261.152344 623.75 261.46875 624.191406 261.765625 C 624.636719 262.066406 625.097656 262.339844 625.566406 262.589844 C 626.039062 262.84375 626.523438 263.070312 627.015625 263.277344 C 627.511719 263.480469 628.015625 263.660156 628.527344 263.816406 C 629.039062 263.972656 629.554688 264.101562 630.082031 264.207031 C 630.605469 264.308594 631.132812 264.386719 631.664062 264.441406 C 632.199219 264.492188 632.730469 264.519531 633.265625 264.519531 L 668.71875 264.519531 C 677.738281 264.519531 692.210938 264.945312 699.035156 260.78125 C 708.921875 250.78125 708.921875 250.78125 708.921875 250.78125 C 712.660156 236.078125 712.660156 236.078125 712.660156 236.078125 Z M 616.933594 119.710938 L 616.933594 142.015625 C 616.933594 142.550781 616.960938 143.085938 617.011719 143.617188 C 617.066406 144.148438 617.144531 144.675781 617.25 145.199219 C 617.351562 145.726562 617.484375 146.242188 617.636719 146.753906 C 617.792969 147.265625 617.972656 147.769531 618.179688 148.265625 C 618.382812 148.757812 618.609375 149.242188 618.863281 149.710938 C 619.113281 150.183594 619.390625 150.640625 619.6875 151.085938 C 619.984375 151.53125 620.300781 151.960938 620.640625 152.375 C 620.980469 152.785156 621.339844 153.183594 621.71875 153.558594 C 622.097656 153.9375 622.492188 154.296875 622.90625 154.636719 C 623.320312 154.976562 623.75 155.292969 624.191406 155.589844 C 624.636719 155.886719 625.097656 156.164062 625.566406 156.414062 C 626.039062 156.667969 626.523438 156.894531 627.015625 157.097656 C 627.511719 157.304688 628.015625 157.484375 628.527344 157.640625 C 629.039062 157.792969 629.554688 157.925781 630.082031 158.027344 C 630.605469 158.132812 631.132812 158.210938 631.664062 158.261719 C 632.199219 158.316406 632.730469 158.34375 633.265625 158.34375 L 660.882812 158.34375 C 669.902344 158.34375 683.394531 158.625 689.753906 155.449219 C 699.277344 146.289062 699.277344 146.289062 699.277344 146.289062 C 703.015625 130.742188 703.015625 130.742188 703.015625 130.742188 C 699.757812 115.800781 699.757812 115.800781 699.757812 115.800781 C 691.320312 106.640625 691.320312 106.640625 691.320312 106.640625 C 679.382812 103.386719 679.382812 103.386719 679.382812 103.386719 L 633.265625 103.386719 C 632.730469 103.386719 632.199219 103.410156 631.664062 103.464844 C 631.132812 103.515625 630.605469 103.59375 630.082031 103.699219 C 629.554688 103.804688 629.039062 103.933594 628.527344 104.089844 C 628.015625 104.242188 627.511719 104.425781 627.015625 104.628906 C 626.523438 104.832031 626.039062 105.0625 625.566406 105.3125 C 625.097656 105.566406 624.636719 105.839844 624.191406 106.136719 C 623.75 106.433594 623.320312 106.753906 622.90625 107.089844 C 622.492188 107.429688 622.097656 107.789062 621.71875 108.167969 C 621.339844 108.546875 620.980469 108.941406 620.640625 109.355469 C 620.300781 109.769531 619.984375 110.195312 619.6875 110.640625 C 619.390625 111.085938 619.113281 111.542969 618.863281 112.015625 C 618.609375 112.488281 618.382812 112.96875 618.179688 113.464844 C 617.972656 113.957031 617.792969 114.460938 617.636719 114.972656 C 617.484375 115.484375 617.351562 116.003906 617.25 116.527344 C 617.144531 117.050781 617.066406 117.578125 617.011719 118.113281 C 616.960938 118.644531 616.933594 119.175781 616.933594 119.710938 Z M 616.933594 119.710938 " fill-opacity="1" fill-rule="nonzero"/><g clip-path="url(#3c9ba831ce)"><g clip-path="url(#a5625006d0)"><path fill="#121221" d="M 38.316406 51.898438 L 104.59375 51.898438 L 104.59375 106.285156 L 38.316406 106.285156 Z M 38.316406 51.898438 " fill-opacity="1" fill-rule="nonzero"/></g></g><g clip-path="url(#d34ae32114)"><g clip-path="url(#577a265648)"><g clip-path="url(#3e7aa8785b)"><path fill="#e1e6ea" d="M 463.289062 272.027344 C 473.566406 267.085938 483.273438 262.355469 488.757812 259.671875 C 497.347656 270.761719 513.59375 277.902344 536.4375 279.136719 C 554.792969 280.101562 570.949219 276.996094 570.949219 276.996094 C 570.949219 276.996094 571.339844 275.640625 571.582031 273.984375 C 575.984375 272.871094 582.039062 271.121094 589.574219 268.773438 C 589.785156 269.34375 589.816406 269.707031 589.816406 269.707031 L 606.695312 264.3125 C 606.695312 264.3125 607.058594 263.742188 607.417969 262.867188 C 657.871094 244.941406 675.050781 225.175781 680.6875 220.476562 C 686.65625 215.535156 686.234375 210.742188 687.046875 205.019531 C 687.652344 200.800781 685.78125 188.566406 684.726562 182.359375 C 685.542969 181.246094 685.84375 180.3125 685.84375 180.3125 C 685.84375 180.3125 684.578125 171.121094 679.875 162.777344 C 677.253906 158.136719 668.902344 159.761719 666.671875 160.878906 C 664.414062 161.992188 661.730469 163.832031 662.574219 168.078125 C 663.417969 172.328125 669.929688 183.65625 672.28125 185.554688 C 674.148438 185.976562 675.746094 186.097656 677.132812 186.035156 C 678.367188 193.296875 680.75 208.664062 679.273438 211.765625 C 677.613281 215.230469 662.484375 235.328125 603.410156 255.335938 C 602.445312 255.0625 601.300781 254.851562 599.972656 254.703125 L 599.824219 254.308594 C 599.824219 254.308594 596.6875 255.457031 591.777344 256.511719 C 568.960938 261.480469 545.148438 257.203125 537.253906 230.117188 C 530.289062 206.222656 544.546875 179.4375 558.863281 161.300781 C 562.238281 157.023438 564.621094 154.550781 564.621094 154.550781 L 564.378906 154.28125 L 565.042969 153.769531 C 565.042969 153.769531 566.1875 152.5625 566.640625 150.996094 C 608.019531 118.816406 634.03125 108.0625 643.796875 113.484375 C 654.46875 119.421875 656.96875 130.476562 657.480469 132.34375 C 655.3125 133.492188 653.292969 135.058594 653.472656 136.714844 C 654.679688 148.132812 658.324219 155.425781 658.324219 155.425781 C 658.324219 155.425781 658.054688 157.203125 666.644531 156.328125 C 675.234375 155.457031 675.867188 149.128906 675.867188 149.128906 C 674.148438 141.925781 670.652344 134.96875 668.964844 131.953125 C 667.9375 130.144531 666.25 129.785156 664.5625 129.964844 C 664.625 129.753906 664.652344 129.605469 664.652344 129.605469 C 664.59375 130.929688 659.742188 112.914062 644.070312 106.34375 C 631.410156 101.070312 588.1875 119.421875 528.511719 171.273438 C 527.066406 170.488281 525.828125 170.039062 525.828125 170.039062 C 516.0625 177.8125 506.871094 187.300781 499.15625 197.09375 C 484.539062 215.652344 479.382812 232.917969 482.609375 246.777344 C 469.015625 253.4375 428.265625 273.320312 420.339844 276.09375 C 411.296875 279.226562 389.929688 284.5 365.636719 269.796875 C 353.761719 262.566406 346.796875 239.578125 355.628906 221.859375 C 360.691406 211.675781 372.417969 200.46875 380.132812 191.972656 C 433.179688 133.671875 378.292969 116.40625 395.382812 90.132812 C 405.269531 74.917969 427.0625 68.953125 442.160156 69.527344 C 452.410156 69.917969 481.734375 80.734375 482.367188 80.976562 C 482.367188 80.976562 483.332031 80.070312 484.355469 78.835938 L 485.984375 79.5 C 485.804688 80.644531 485.652344 81.820312 485.59375 83.023438 C 485.019531 98.359375 496.984375 111.285156 512.328125 111.859375 C 527.699219 112.460938 540.597656 100.5 541.199219 85.132812 C 541.773438 69.796875 529.808594 56.871094 514.46875 56.296875 C 503.164062 55.875 493.21875 62.234375 488.484375 71.726562 L 487.402344 71.273438 C 487.492188 69.316406 487.371094 67.597656 487.371094 67.597656 C 476.160156 63.4375 453.914062 55.695312 442.703125 55.273438 C 425.222656 54.609375 397.222656 61.148438 383.417969 82.359375 C 370.820312 101.734375 383.296875 118.546875 388.390625 136.773438 C 396.980469 167.535156 355.480469 190.132812 342.851562 215.503906 C 331.304688 238.703125 338.960938 270.277344 358.25 281.96875 C 398.578125 306.433594 427.542969 289.199219 463.289062 272.027344 Z M 463.289062 272.027344 " fill-opacity="1" fill-rule="nonzero"/></g></g></g><g clip-path="url(#6e4cf98d25)"><g clip-path="url(#8c26d1ec1e)"><g clip-path="url(#13f2d62f2f)"><path fill="#121221" d="M 463.347656 271.847656 C 473.628906 266.90625 483.332031 262.175781 488.816406 259.492188 C 497.40625 270.582031 513.652344 277.75 536.5 278.957031 C 554.855469 279.949219 571.007812 276.816406 571.007812 276.816406 C 571.007812 276.816406 571.402344 275.460938 571.640625 273.804688 C 576.042969 272.71875 582.101562 270.972656 589.636719 268.59375 C 589.847656 269.195312 589.878906 269.554688 589.878906 269.554688 L 606.753906 264.132812 C 606.753906 264.132812 607.117188 263.558594 607.480469 262.714844 C 657.933594 244.757812 675.113281 224.996094 680.75 220.292969 C 686.714844 215.382812 686.292969 210.5625 687.109375 204.835938 C 687.710938 200.621094 685.84375 188.386719 684.789062 182.179688 C 685.601562 181.066406 685.902344 180.160156 685.902344 180.160156 C 685.902344 180.160156 684.636719 170.941406 679.933594 162.625 C 677.3125 157.957031 668.964844 159.582031 666.734375 160.699219 C 664.472656 161.8125 661.792969 163.648438 662.636719 167.898438 C 663.480469 172.148438 669.988281 183.476562 672.339844 185.375 C 674.207031 185.824219 675.804688 185.945312 677.191406 185.886719 C 678.429688 193.117188 680.808594 208.484375 679.332031 211.617188 C 677.675781 215.082031 662.542969 235.179688 603.46875 255.183594 C 602.503906 254.882812 601.359375 254.671875 600.035156 254.550781 L 599.882812 254.128906 C 599.882812 254.128906 596.75 255.273438 591.835938 256.359375 C 568.988281 261.300781 545.210938 257.023438 537.3125 229.933594 C 530.351562 206.074219 544.578125 179.257812 558.921875 161.121094 C 562.300781 156.839844 564.679688 154.371094 564.679688 154.371094 L 564.4375 154.128906 L 565.070312 153.585938 C 565.070312 153.585938 566.246094 152.382812 566.667969 150.816406 C 608.082031 118.667969 634.09375 107.878906 643.859375 113.332031 C 654.527344 119.269531 657.027344 130.296875 657.511719 132.164062 C 655.371094 133.308594 653.351562 134.875 653.53125 136.535156 C 654.738281 147.953125 658.386719 155.246094 658.386719 155.246094 C 658.386719 155.246094 658.113281 157.050781 666.703125 156.148438 C 675.292969 155.273438 675.925781 148.976562 675.925781 148.976562 C 674.179688 141.746094 670.710938 134.785156 669.023438 131.804688 C 668 129.964844 666.3125 129.632812 664.625 129.785156 C 664.6875 129.574219 664.714844 129.421875 664.714844 129.421875 C 664.652344 130.75 659.800781 112.730469 644.128906 106.191406 C 631.46875 100.890625 588.25 119.269531 528.570312 171.09375 C 527.125 170.308594 525.890625 169.855469 525.890625 169.855469 C 516.125 177.628906 506.933594 187.152344 499.214844 196.914062 C 484.566406 215.472656 479.445312 232.738281 482.667969 246.628906 C 469.074219 253.285156 428.328125 273.140625 420.398438 275.914062 C 411.359375 279.078125 389.988281 284.347656 365.695312 269.617188 C 353.820312 262.414062 346.859375 239.425781 355.691406 221.679688 C 360.753906 211.496094 372.476562 200.289062 380.195312 191.820312 C 433.210938 133.519531 378.355469 116.226562 395.445312 89.953125 C 405.332031 74.769531 427.121094 68.773438 442.222656 69.34375 C 452.46875 69.738281 481.796875 80.554688 482.429688 80.792969 C 482.429688 80.792969 483.394531 79.890625 484.417969 78.683594 L 486.046875 79.316406 C 485.863281 80.492188 485.714844 81.667969 485.652344 82.84375 C 485.082031 98.207031 497.046875 111.105469 512.386719 111.707031 C 527.726562 112.28125 540.660156 100.316406 541.261719 84.980469 C 541.835938 69.617188 529.867188 56.71875 514.496094 56.117188 C 503.226562 55.695312 493.277344 62.054688 488.546875 71.542969 L 487.460938 71.121094 C 487.550781 69.132812 487.429688 67.445312 487.429688 67.445312 C 476.21875 63.257812 453.976562 55.515625 442.765625 55.09375 C 425.28125 54.429688 397.28125 60.96875 383.480469 82.179688 C 370.878906 101.554688 383.359375 118.394531 388.453125 136.625 C 397.042969 167.386719 355.539062 189.953125 342.910156 215.324219 C 331.367188 238.523438 339.023438 270.097656 358.3125 281.820312 C 398.640625 306.253906 427.605469 289.050781 463.351562 271.847656 Z M 463.347656 271.847656 " fill-opacity="1" fill-rule="nonzero"/></g></g></g><g clip-path="url(#f3e1174228)"><g clip-path="url(#3071dce1a2)"><g clip-path="url(#6dad0ad199)"><path fill="#121221" d="M 463.347656 271.875 C 473.597656 266.964844 483.332031 262.203125 488.816406 259.523438 C 497.40625 270.640625 513.652344 277.78125 536.5 278.988281 C 554.855469 279.980469 571.007812 276.847656 571.007812 276.847656 C 571.007812 276.847656 571.402344 275.492188 571.640625 273.835938 C 576.042969 272.75 582.101562 271.003906 589.636719 268.652344 C 589.847656 269.222656 589.878906 269.585938 589.878906 269.585938 L 606.726562 264.191406 C 606.726562 264.191406 607.117188 263.621094 607.480469 262.746094 C 657.933594 244.820312 675.113281 225.023438 680.75 220.355469 C 686.6875 215.414062 686.292969 210.59375 687.109375 204.867188 C 687.710938 200.679688 685.8125 188.417969 684.789062 182.210938 C 685.601562 181.125 685.902344 180.191406 685.902344 180.191406 C 685.902344 180.191406 684.636719 170.972656 679.933594 162.65625 C 677.3125 158.015625 668.964844 159.613281 666.703125 160.726562 C 664.472656 161.871094 661.789062 163.679688 662.636719 167.929688 C 663.480469 172.175781 669.988281 183.503906 672.308594 185.402344 C 674.179688 185.855469 675.804688 185.976562 677.191406 185.917969 C 678.429688 193.148438 680.808594 208.511719 679.300781 211.648438 C 677.675781 215.113281 662.515625 235.207031 603.46875 255.214844 C 602.503906 254.941406 601.359375 254.703125 600.035156 254.582031 L 599.882812 254.160156 C 599.882812 254.160156 596.75 255.335938 591.835938 256.390625 C 568.988281 261.359375 545.210938 257.082031 537.3125 229.996094 C 530.320312 206.101562 544.578125 179.316406 558.921875 161.179688 C 562.300781 156.871094 564.679688 154.402344 564.679688 154.402344 L 564.4375 154.160156 L 565.070312 153.617188 C 565.070312 153.617188 566.246094 152.441406 566.667969 150.875 C 608.082031 118.695312 634.09375 107.941406 643.859375 113.363281 C 654.527344 119.300781 657.027344 130.355469 657.511719 132.226562 C 655.371094 133.371094 653.351562 134.90625 653.53125 136.59375 C 654.707031 147.984375 658.355469 155.273438 658.355469 155.273438 C 658.355469 155.273438 658.082031 157.082031 666.671875 156.207031 C 675.261719 155.335938 675.925781 149.007812 675.925781 149.007812 C 674.179688 141.777344 670.710938 134.847656 669.023438 131.832031 C 668 129.996094 666.3125 129.664062 664.59375 129.84375 C 664.65625 129.605469 664.683594 129.453125 664.683594 129.453125 C 664.652344 130.777344 659.800781 112.761719 644.128906 106.222656 C 631.46875 100.949219 588.21875 119.300781 528.574219 171.121094 C 527.125 170.371094 525.890625 169.917969 525.890625 169.917969 C 516.125 177.691406 506.902344 187.179688 499.214844 196.945312 C 484.566406 215.535156 479.445312 232.796875 482.667969 246.65625 C 469.074219 253.316406 428.328125 273.203125 420.398438 275.945312 C 411.328125 279.105469 389.988281 284.378906 365.695312 269.644531 C 353.789062 262.445312 346.859375 239.457031 355.660156 221.738281 C 360.753906 211.554688 372.476562 200.316406 380.195312 191.851562 C 433.210938 133.550781 378.355469 116.285156 395.445312 89.984375 C 405.332031 74.796875 427.121094 68.800781 442.222656 69.375 C 452.46875 69.765625 481.796875 80.582031 482.429688 80.824219 C 482.429688 80.824219 483.394531 79.921875 484.417969 78.714844 L 486.046875 79.347656 C 485.835938 80.523438 485.683594 81.699219 485.652344 82.902344 C 485.082031 98.238281 497.046875 111.164062 512.386719 111.738281 C 527.726562 112.339844 540.660156 100.347656 541.230469 85.011719 C 541.835938 69.675781 529.867188 56.75 514.496094 56.179688 C 503.226562 55.726562 493.277344 62.113281 488.546875 71.605469 L 487.429688 71.152344 C 487.550781 69.164062 487.402344 67.476562 487.402344 67.476562 C 476.21875 63.289062 453.945312 55.574219 442.765625 55.152344 C 425.253906 54.460938 397.28125 61.027344 383.480469 82.238281 C 370.878906 101.582031 383.359375 118.425781 388.453125 136.652344 C 397.042969 167.417969 355.539062 190.015625 342.910156 215.382812 C 331.367188 238.550781 339.023438 270.160156 358.3125 281.847656 C 398.640625 306.285156 427.605469 289.078125 463.351562 271.875 Z M 463.347656 271.875 " fill-opacity="1" fill-rule="nonzero"/></g></g></g><g clip-path="url(#d44d77af85)"><g clip-path="url(#86c45018ed)"><g clip-path="url(#d202ec35fb)"><path fill="#121221" d="M 463.347656 271.847656 C 473.628906 266.90625 483.332031 262.175781 488.816406 259.492188 C 497.40625 270.582031 513.652344 277.722656 536.5 278.957031 C 554.855469 279.921875 571.007812 276.816406 571.007812 276.816406 C 571.007812 276.816406 571.402344 275.460938 571.640625 273.804688 C 576.042969 272.6875 582.101562 270.941406 589.636719 268.59375 C 589.847656 269.164062 589.878906 269.527344 589.878906 269.527344 L 606.753906 264.132812 C 606.753906 264.132812 607.117188 263.558594 607.480469 262.6875 C 657.933594 244.757812 675.113281 224.996094 680.75 220.292969 C 686.714844 215.351562 686.292969 210.5625 687.109375 204.835938 C 687.710938 200.621094 685.84375 188.386719 684.789062 182.179688 C 685.601562 181.066406 685.902344 180.132812 685.902344 180.132812 C 685.902344 180.132812 684.636719 170.941406 679.933594 162.597656 C 677.3125 157.957031 668.964844 159.582031 666.734375 160.699219 C 664.472656 161.8125 661.792969 163.648438 662.636719 167.898438 C 663.480469 172.148438 669.988281 183.476562 672.339844 185.375 C 674.207031 185.796875 675.804688 185.917969 677.191406 185.855469 C 678.429688 193.117188 680.808594 208.484375 679.332031 211.585938 C 677.675781 215.050781 662.542969 235.148438 603.46875 255.152344 C 602.503906 254.882812 601.359375 254.671875 600.035156 254.519531 L 599.882812 254.128906 C 599.882812 254.128906 596.75 255.273438 591.835938 256.328125 C 569.019531 261.300781 545.210938 257.023438 537.3125 229.933594 C 530.351562 206.042969 544.605469 179.257812 558.921875 161.121094 C 562.300781 156.839844 564.679688 154.371094 564.679688 154.371094 L 564.4375 154.097656 L 565.101562 153.585938 C 565.101562 153.585938 566.246094 152.382812 566.699219 150.816406 C 608.082031 118.636719 634.09375 107.878906 643.859375 113.304688 C 654.527344 119.238281 657.027344 130.296875 657.542969 132.164062 C 655.371094 133.308594 653.351562 134.875 653.53125 136.535156 C 654.738281 147.953125 658.386719 155.246094 658.386719 155.246094 C 658.386719 155.246094 658.113281 157.023438 666.703125 156.148438 C 675.292969 155.273438 675.925781 148.945312 675.925781 148.945312 C 674.207031 141.746094 670.710938 134.785156 669.023438 131.773438 C 668 129.964844 666.3125 129.605469 664.625 129.785156 C 664.6875 129.574219 664.714844 129.421875 664.714844 129.421875 C 664.652344 130.75 659.800781 112.730469 644.128906 106.164062 C 631.46875 100.890625 588.25 119.238281 528.574219 171.09375 C 527.125 170.308594 525.890625 169.855469 525.890625 169.855469 C 516.125 177.628906 506.933594 187.121094 499.214844 196.914062 C 484.597656 215.472656 479.445312 232.738281 482.667969 246.597656 C 469.074219 253.285156 428.328125 273.140625 420.398438 275.914062 C 411.359375 279.046875 389.988281 284.320312 365.695312 269.617188 C 353.820312 262.386719 346.859375 239.394531 355.691406 221.679688 C 360.753906 211.496094 372.476562 200.289062 380.195312 191.792969 C 433.238281 133.492188 378.355469 116.226562 395.445312 89.953125 C 405.332031 74.738281 427.121094 68.773438 442.222656 69.34375 C 452.46875 69.738281 481.796875 80.554688 482.429688 80.792969 C 482.429688 80.792969 483.394531 79.890625 484.417969 78.65625 L 486.046875 79.316406 C 485.863281 80.460938 485.714844 81.636719 485.652344 82.84375 C 485.082031 98.179688 497.046875 111.105469 512.386719 111.675781 C 527.757812 112.28125 540.660156 100.316406 541.261719 84.953125 C 541.835938 69.617188 529.867188 56.691406 514.527344 56.117188 C 503.226562 55.695312 493.277344 62.054688 488.546875 71.542969 L 487.460938 71.09375 C 487.550781 69.132812 487.429688 67.417969 487.429688 67.417969 C 476.21875 63.257812 453.976562 55.515625 442.765625 55.09375 C 425.28125 54.429688 397.28125 60.96875 383.480469 82.179688 C 370.878906 101.554688 383.359375 118.367188 388.453125 136.59375 C 397.042969 167.355469 355.539062 189.953125 342.910156 215.324219 C 331.367188 238.523438 339.023438 270.097656 358.3125 281.789062 C 398.640625 306.253906 427.605469 289.019531 463.351562 271.847656 Z M 463.347656 271.847656 " fill-opacity="1" fill-rule="nonzero"/></g></g></g><g clip-path="url(#0e2669a696)"><g clip-path="url(#0c55c41ccd)"><g clip-path="url(#11b6dfacb4)"><path fill="#121221" d="M 463.320312 271.875 C 473.566406 266.933594 483.273438 262.175781 488.757812 259.492188 C 497.378906 270.609375 513.621094 277.75 536.4375 278.957031 C 554.792969 279.949219 570.980469 276.816406 570.980469 276.816406 C 570.980469 276.816406 571.339844 275.460938 571.613281 273.804688 C 576.011719 272.71875 582.070312 270.972656 589.574219 268.621094 C 589.816406 269.195312 589.816406 269.554688 589.816406 269.554688 L 606.695312 264.164062 C 606.695312 264.164062 607.085938 263.589844 607.449219 262.714844 C 657.902344 244.789062 675.050781 224.996094 680.71875 220.324219 C 686.65625 215.382812 686.234375 210.59375 687.046875 204.835938 C 687.652344 200.648438 685.78125 188.386719 684.757812 182.179688 C 685.570312 181.09375 685.84375 180.160156 685.84375 180.160156 C 685.84375 180.160156 684.605469 170.941406 679.90625 162.625 C 677.28125 157.984375 668.933594 159.582031 666.671875 160.699219 C 664.414062 161.84375 661.730469 163.648438 662.574219 167.898438 C 663.417969 172.148438 669.957031 183.476562 672.28125 185.375 C 674.148438 185.824219 675.746094 185.945312 677.164062 185.886719 C 678.398438 193.117188 680.75 208.484375 679.273438 211.617188 C 677.644531 215.082031 662.484375 235.179688 603.410156 255.183594 C 602.476562 254.914062 601.332031 254.671875 599.972656 254.550781 L 599.851562 254.128906 C 599.851562 254.128906 596.6875 255.304688 591.777344 256.359375 C 568.960938 261.332031 545.179688 257.050781 537.253906 229.964844 C 530.289062 206.074219 544.546875 179.289062 558.894531 161.148438 C 562.269531 156.871094 564.621094 154.371094 564.621094 154.371094 L 564.378906 154.128906 L 565.042969 153.585938 C 565.042969 153.585938 566.1875 152.410156 566.640625 150.84375 C 608.019531 118.667969 634.0625 107.910156 643.828125 113.332031 C 654.46875 119.269531 656.96875 130.328125 657.480469 132.195312 C 655.339844 133.339844 653.320312 134.875 653.503906 136.5625 C 654.679688 147.953125 658.324219 155.246094 658.324219 155.246094 C 658.324219 155.246094 658.054688 157.050781 666.644531 156.179688 C 675.234375 155.304688 675.867188 148.976562 675.867188 148.976562 C 674.148438 141.746094 670.683594 134.816406 668.996094 131.804688 C 667.9375 129.964844 666.25 129.632812 664.5625 129.816406 C 664.625 129.574219 664.652344 129.421875 664.652344 129.421875 C 664.59375 130.75 659.742188 112.730469 644.097656 106.191406 C 631.441406 100.921875 588.1875 119.269531 528.542969 171.121094 C 527.066406 170.339844 525.859375 169.886719 525.859375 169.886719 C 516.09375 177.660156 506.871094 187.152344 499.15625 196.914062 C 484.539062 215.503906 479.414062 232.769531 482.640625 246.628906 C 469.015625 253.285156 428.265625 273.171875 420.339844 275.914062 C 411.296875 279.078125 389.957031 284.347656 365.664062 269.617188 C 353.761719 262.414062 346.796875 239.425781 355.628906 221.710938 C 360.691406 211.527344 372.449219 200.289062 380.164062 191.820312 C 433.179688 133.519531 378.292969 116.257812 395.382812 89.953125 C 405.269531 74.769531 427.089844 68.773438 442.160156 69.34375 C 452.4375 69.738281 481.765625 80.554688 482.398438 80.792969 C 482.398438 80.792969 483.332031 79.890625 484.355469 78.683594 L 485.984375 79.316406 C 485.804688 80.492188 485.652344 81.667969 485.621094 82.871094 C 485.019531 98.207031 496.984375 111.132812 512.355469 111.707031 C 527.699219 112.308594 540.628906 100.316406 541.199219 84.980469 C 541.773438 69.644531 529.808594 56.71875 514.46875 56.148438 C 503.195312 55.695312 493.25 62.082031 488.515625 71.574219 L 487.402344 71.121094 C 487.523438 69.132812 487.371094 67.445312 487.371094 67.445312 C 476.160156 63.257812 453.914062 55.546875 442.703125 55.125 C 425.222656 54.429688 397.222656 61 383.449219 82.210938 C 370.851562 101.554688 383.328125 118.394531 388.421875 136.625 C 397.011719 167.386719 355.507812 189.984375 342.851562 215.351562 C 331.304688 238.523438 338.960938 270.128906 358.25 281.820312 C 398.609375 306.253906 427.574219 289.050781 463.320312 271.875 Z M 463.320312 271.875 " fill-opacity="1" fill-rule="nonzero"/></g></g></g><path fill="#121221" d="M 219.847656 52.097656 L 282.519531 52.097656 L 258.09375 64.535156 Z M 219.847656 52.097656 " fill-opacity="1" fill-rule="nonzero"/><path fill="#121221" d="M 219.847656 52.097656 L 282.519531 52.097656 L 258.09375 64.535156 Z M 219.847656 52.097656 " fill-opacity="1" fill-rule="nonzero"/><path fill="#121221" d="M 286.222656 105.925781 L 223.550781 106.097656 L 247.9375 93.589844 Z M 286.222656 105.925781 " fill-opacity="1" fill-rule="nonzero"/><g fill="#121221" fill-opacity="1"><g transform="translate(310.014041, 360.089532)"><g><path d="M 14.53125 -26.03125 C 17.082031 -26.03125 19.207031 -25.625 20.90625 -24.8125 C 22.613281 -24.007812 23.46875 -22.976562 23.46875 -21.71875 C 23.46875 -21.164062 23.285156 -20.671875 22.921875 -20.234375 C 22.566406 -19.796875 22.113281 -19.578125 21.5625 -19.578125 C 21.144531 -19.578125 20.8125 -19.640625 20.5625 -19.765625 C 20.320312 -19.898438 19.992188 -20.113281 19.578125 -20.40625 C 19.378906 -20.59375 19.070312 -20.816406 18.65625 -21.078125 C 18.269531 -21.273438 17.71875 -21.4375 17 -21.5625 C 16.289062 -21.695312 15.644531 -21.765625 15.0625 -21.765625 C 13.375 -21.765625 11.878906 -21.375 10.578125 -20.59375 C 9.285156 -19.820312 8.285156 -18.742188 7.578125 -17.359375 C 6.867188 -15.984375 6.515625 -14.457031 6.515625 -12.78125 C 6.515625 -11.0625 6.859375 -9.519531 7.546875 -8.15625 C 8.242188 -6.800781 9.222656 -5.734375 10.484375 -4.953125 C 11.753906 -4.179688 13.195312 -3.796875 14.8125 -3.796875 C 16.5 -3.796875 17.859375 -4.050781 18.890625 -4.5625 C 19.117188 -4.695312 19.425781 -4.910156 19.8125 -5.203125 C 20.144531 -5.460938 20.429688 -5.65625 20.671875 -5.78125 C 20.910156 -5.90625 21.207031 -5.96875 21.5625 -5.96875 C 22.21875 -5.96875 22.726562 -5.765625 23.09375 -5.359375 C 23.46875 -4.960938 23.65625 -4.441406 23.65625 -3.796875 C 23.65625 -3.109375 23.222656 -2.429688 22.359375 -1.765625 C 21.503906 -1.109375 20.359375 -0.566406 18.921875 -0.140625 C 17.484375 0.273438 15.9375 0.484375 14.28125 0.484375 C 11.820312 0.484375 9.648438 -0.0859375 7.765625 -1.234375 C 5.890625 -2.390625 4.441406 -3.976562 3.421875 -6 C 2.398438 -8.019531 1.890625 -10.28125 1.890625 -12.78125 C 1.890625 -15.269531 2.421875 -17.523438 3.484375 -19.546875 C 4.554688 -21.578125 6.046875 -23.164062 7.953125 -24.3125 C 9.867188 -25.457031 12.0625 -26.03125 14.53125 -26.03125 Z M 14.53125 -26.03125 "/></g></g></g><g fill="#121221" fill-opacity="1"><g transform="translate(366.662607, 360.089532)"><g><path d="M 27.546875 -12.734375 C 27.546875 -10.203125 26.976562 -7.929688 25.84375 -5.921875 C 24.707031 -3.921875 23.160156 -2.351562 21.203125 -1.21875 C 19.242188 -0.0820312 17.082031 0.484375 14.71875 0.484375 C 12.351562 0.484375 10.191406 -0.0820312 8.234375 -1.21875 C 6.273438 -2.351562 4.726562 -3.921875 3.59375 -5.921875 C 2.457031 -7.929688 1.890625 -10.203125 1.890625 -12.734375 C 1.890625 -15.253906 2.457031 -17.535156 3.59375 -19.578125 C 4.726562 -21.617188 6.273438 -23.203125 8.234375 -24.328125 C 10.191406 -25.460938 12.351562 -26.03125 14.71875 -26.03125 C 17.082031 -26.03125 19.242188 -25.460938 21.203125 -24.328125 C 23.160156 -23.203125 24.707031 -21.617188 25.84375 -19.578125 C 26.976562 -17.535156 27.546875 -15.253906 27.546875 -12.734375 Z M 22.921875 -12.734375 C 22.921875 -14.472656 22.554688 -16.03125 21.828125 -17.40625 C 21.109375 -18.789062 20.125 -19.863281 18.875 -20.625 C 17.625 -21.382812 16.238281 -21.765625 14.71875 -21.765625 C 13.195312 -21.765625 11.8125 -21.382812 10.5625 -20.625 C 9.320312 -19.863281 8.335938 -18.789062 7.609375 -17.40625 C 6.878906 -16.03125 6.515625 -14.472656 6.515625 -12.734375 C 6.515625 -11.015625 6.878906 -9.472656 7.609375 -8.109375 C 8.335938 -6.753906 9.320312 -5.695312 10.5625 -4.9375 C 11.8125 -4.175781 13.195312 -3.796875 14.71875 -3.796875 C 16.238281 -3.796875 17.625 -4.175781 18.875 -4.9375 C 20.125 -5.695312 21.109375 -6.753906 21.828125 -8.109375 C 22.554688 -9.472656 22.921875 -11.015625 22.921875 -12.734375 Z M 22.921875 -12.734375 "/></g></g></g><g fill="#121221" fill-opacity="1"><g transform="translate(427.780093, 360.089532)"><g><path d="M 22.390625 -25.453125 C 23.078125 -25.453125 23.632812 -25.222656 24.0625 -24.765625 C 24.5 -24.316406 24.71875 -23.769531 24.71875 -23.125 L 24.71875 -10.203125 C 24.71875 -6.835938 23.785156 -4.222656 21.921875 -2.359375 C 20.066406 -0.492188 17.4375 0.4375 14.03125 0.4375 C 10.664062 0.4375 8.0625 -0.492188 6.21875 -2.359375 C 4.375 -4.222656 3.453125 -6.835938 3.453125 -10.203125 L 3.453125 -23.125 C 3.453125 -23.769531 3.671875 -24.316406 4.109375 -24.765625 C 4.546875 -25.222656 5.085938 -25.453125 5.734375 -25.453125 C 6.410156 -25.453125 6.96875 -25.222656 7.40625 -24.765625 C 7.84375 -24.316406 8.0625 -23.769531 8.0625 -23.125 L 8.0625 -10.203125 C 8.0625 -5.960938 10.050781 -3.84375 14.03125 -3.84375 C 16.007812 -3.84375 17.515625 -4.375 18.546875 -5.4375 C 19.585938 -6.507812 20.109375 -8.097656 20.109375 -10.203125 L 20.109375 -23.125 C 20.109375 -23.769531 20.328125 -24.316406 20.765625 -24.765625 C 21.203125 -25.222656 21.742188 -25.453125 22.390625 -25.453125 Z M 22.390625 -25.453125 "/></g></g></g><g fill="#121221" fill-opacity="1"><g transform="translate(487.634631, 360.089532)"><g><path d="M 16.125 -26.03125 C 16.96875 -26.03125 17.695312 -25.8125 18.3125 -25.375 C 18.925781 -24.9375 19.234375 -24.394531 19.234375 -23.75 C 19.234375 -22.976562 19.03125 -22.390625 18.625 -21.984375 C 18.21875 -21.578125 17.722656 -21.375 17.140625 -21.375 C 16.847656 -21.375 16.414062 -21.472656 15.84375 -21.671875 C 15.15625 -21.890625 14.617188 -22 14.234375 -22 C 13.234375 -22 12.253906 -21.648438 11.296875 -20.953125 C 10.335938 -20.265625 9.554688 -19.3125 8.953125 -18.09375 C 8.359375 -16.882812 8.0625 -15.53125 8.0625 -14.03125 L 8.0625 -2.328125 C 8.0625 -1.679688 7.84375 -1.128906 7.40625 -0.671875 C 6.96875 -0.222656 6.410156 0 5.734375 0 C 5.054688 0 4.503906 -0.21875 4.078125 -0.65625 C 3.660156 -1.09375 3.453125 -1.648438 3.453125 -2.328125 L 3.453125 -23.125 C 3.453125 -23.769531 3.671875 -24.316406 4.109375 -24.765625 C 4.546875 -25.222656 5.085938 -25.453125 5.734375 -25.453125 C 6.410156 -25.453125 6.96875 -25.222656 7.40625 -24.765625 C 7.84375 -24.316406 8.0625 -23.769531 8.0625 -23.125 L 8.0625 -20.640625 C 8.769531 -22.234375 9.835938 -23.519531 11.265625 -24.5 C 12.691406 -25.488281 14.3125 -26 16.125 -26.03125 Z M 16.125 -26.03125 "/></g></g></g><g fill="#121221" fill-opacity="1"><g transform="translate(539.377075, 360.089532)"><g><path d="M 1.984375 -3.984375 C 1.691406 -4.429688 1.546875 -4.867188 1.546875 -5.296875 C 1.546875 -5.941406 1.890625 -6.492188 2.578125 -6.953125 C 2.898438 -7.171875 3.269531 -7.28125 3.6875 -7.28125 C 4.269531 -7.28125 4.804688 -7.039062 5.296875 -6.5625 C 6.265625 -5.457031 7.304688 -4.628906 8.421875 -4.078125 C 9.546875 -3.523438 10.882812 -3.25 12.4375 -3.25 C 13.664062 -3.28125 14.75 -3.5625 15.6875 -4.09375 C 16.625 -4.632812 17.09375 -5.503906 17.09375 -6.703125 C 17.09375 -7.804688 16.613281 -8.648438 15.65625 -9.234375 C 14.707031 -9.816406 13.3125 -10.347656 11.46875 -10.828125 C 9.65625 -11.316406 8.148438 -11.828125 6.953125 -12.359375 C 5.753906 -12.898438 4.738281 -13.675781 3.90625 -14.6875 C 3.082031 -15.707031 2.671875 -17.046875 2.671875 -18.703125 C 2.671875 -20.160156 3.082031 -21.4375 3.90625 -22.53125 C 4.738281 -23.632812 5.84375 -24.492188 7.21875 -25.109375 C 8.59375 -25.722656 10.085938 -26.03125 11.703125 -26.03125 C 13.253906 -26.03125 14.800781 -25.738281 16.34375 -25.15625 C 17.882812 -24.570312 19.140625 -23.679688 20.109375 -22.484375 C 20.492188 -22.035156 20.6875 -21.566406 20.6875 -21.078125 C 20.6875 -20.566406 20.429688 -20.066406 19.921875 -19.578125 C 19.597656 -19.285156 19.191406 -19.140625 18.703125 -19.140625 C 18.117188 -19.140625 17.648438 -19.332031 17.296875 -19.71875 C 16.617188 -20.5 15.785156 -21.097656 14.796875 -21.515625 C 13.804688 -21.941406 12.710938 -22.15625 11.515625 -22.15625 C 10.285156 -22.15625 9.238281 -21.898438 8.375 -21.390625 C 7.519531 -20.890625 7.09375 -20.039062 7.09375 -18.84375 C 7.125 -17.707031 7.613281 -16.863281 8.5625 -16.3125 C 9.519531 -15.769531 10.988281 -15.238281 12.96875 -14.71875 C 14.6875 -14.257812 16.113281 -13.769531 17.25 -13.25 C 18.382812 -12.738281 19.335938 -11.972656 20.109375 -10.953125 C 20.890625 -9.929688 21.28125 -8.597656 21.28125 -6.953125 C 21.28125 -5.421875 20.84375 -4.097656 19.96875 -2.984375 C 19.09375 -1.867188 17.945312 -1.007812 16.53125 -0.40625 C 15.125 0.1875 13.628906 0.484375 12.046875 0.484375 C 10.003906 0.484375 8.117188 0.128906 6.390625 -0.578125 C 4.660156 -1.296875 3.191406 -2.429688 1.984375 -3.984375 Z M 1.984375 -3.984375 "/></g></g></g></svg>