<?xml version="1.0" encoding="UTF-8" standalone="no"?>
<!-- Created with Inkscape (http://www.inkscape.org/) -->

<svg
   width="1080"
   height="500"
   viewBox="0 0 285.74999 132.29167"
   version="1.1"
   id="svg1"
   xml:space="preserve"
   xmlns="http://www.w3.org/2000/svg"
   xmlns:svg="http://www.w3.org/2000/svg"><defs
     id="defs1"><clipPath
       id="629caa9acd"><path
         d="m 22.511719,57.300781 h 8.589843 v 7.050781 h -8.589843 z m 0,0"
         clip-rule="nonzero"
         id="path2" /></clipPath><clipPath
       id="db4b3548d2"><path
         d="m 24.761719,57.300781 h 4.085937 c 1.242188,0 2.25,1.007813 2.25,2.25 v 2.550781 c 0,1.242188 -1.007812,2.25 -2.25,2.25 h -4.085937 c -1.242188,0 -2.25,-1.007812 -2.25,-2.25 v -2.550781 c 0,-1.242187 1.007812,-2.25 2.25,-2.25 z m 0,0"
         clip-rule="nonzero"
         id="path3" /></clipPath><clipPath
       id="5b72e7ba7d"><path
         d="m 33.152344,86.382812 h 8.09375 v 7.765626 h -8.09375 z m 0,0"
         clip-rule="nonzero"
         id="path4" /></clipPath><clipPath
       id="54be6aae1a"><path
         d="m 33.15625,84.210938 h 7.933594 v 7.605468 H 33.15625 Z m 0,0"
         clip-rule="nonzero"
         id="path5" /></clipPath><clipPath
       id="94dd935caf"><path
         d="m 33.15625,89.566406 v -3.105468 c 0,-1.242188 1.007812,-2.25 2.25,-2.25 h 3.429688 c 1.242187,0 2.25,1.007812 2.25,2.25 v 3.105468 c 0,1.246094 -1.007813,2.25 -2.25,2.25 H 35.40625 c -1.242188,0 -2.25,-1.003906 -2.25,-2.25 z m 0,0"
         clip-rule="nonzero"
         id="path6" /></clipPath><clipPath
       id="ed7693783c"><path
         d="m 61,57 h 46 V 89 H 61 Z m 0,0"
         clip-rule="nonzero"
         id="path11" /></clipPath><clipPath
       id="4b3818807a"><path
         d="m 107.36328,58.753906 -1.25781,32.976563 -45.714845,-1.742188 1.257813,-32.976562 z m 0,0"
         clip-rule="nonzero"
         id="path12" /></clipPath><clipPath
       id="0b21996ba4"><path
         d="m 107.36328,58.753906 -1.25781,32.976563 -45.714845,-1.742188 1.257813,-32.976562 z m 0,0"
         clip-rule="nonzero"
         id="path13" /></clipPath><clipPath
       id="b905298338"><path
         d="m 97,58 h 10 V 72 H 97 Z m 0,0"
         clip-rule="nonzero"
         id="path14" /></clipPath><clipPath
       id="5e62141ac3"><path
         d="m 107.37109,58.734375 -0.48437,12.738281 -9.742189,-0.371094 0.484375,-12.738281 z m 0,0"
         clip-rule="nonzero"
         id="path15" /></clipPath><clipPath
       id="21aebc310b"><path
         d="M 107.37109,58.734375 106.11328,91.710938 60.398438,89.964844 61.65625,56.988281 Z m 0,0"
         clip-rule="nonzero"
         id="path16" /></clipPath><clipPath
       id="31639f05cb"><path
         d="m 97,76 h 10 V 86 H 97 Z m 0,0"
         clip-rule="nonzero"
         id="path17" /></clipPath><clipPath
       id="af714d3235"><path
         d="m 106.66797,77.15625 -0.3125,8.242188 -8.996095,-0.34375 0.316406,-8.242188 z m 0,0"
         clip-rule="nonzero"
         id="path18" /></clipPath><clipPath
       id="f6a108949f"><path
         d="m 107.37109,58.738281 -1.25781,32.976563 -45.714842,-1.742188 1.253906,-32.976562 z m 0,0"
         clip-rule="nonzero"
         id="path19" /></clipPath><clipPath
       id="ca46555a63"><path
         d="m 73,57 h 16 v 9 H 73 Z m 0,0"
         clip-rule="nonzero"
         id="path20" /></clipPath><clipPath
       id="a8e1cb8cdd"><path
         d="m 88.625,58.015625 -0.285156,7.496094 -14.988282,-0.570313 0.285157,-7.496094 z m 0,0"
         clip-rule="nonzero"
         id="path21" /></clipPath><clipPath
       id="f6864df81a"><path
         d="M 107.37109,58.730469 106.11328,91.707031 60.398438,89.964844 61.65625,56.988281 Z m 0,0"
         clip-rule="nonzero"
         id="path22" /></clipPath><clipPath
       id="0459ae9d8a"><path
         d="m 61,77 h 7 v 9 h -7 z m 0,0"
         clip-rule="nonzero"
         id="path23" /></clipPath><clipPath
       id="22afe30075"><path
         d="m 67.242188,77.558594 -0.289063,7.496094 -6.742187,-0.257813 0.285156,-7.496094 z m 0,0"
         clip-rule="nonzero"
         id="path24" /></clipPath><clipPath
       id="b2057e0045"><path
         d="M 107.36719,58.734375 106.10938,91.710938 60.390625,89.96875 61.648438,56.992188 Z m 0,0"
         clip-rule="nonzero"
         id="path25" /></clipPath></defs><g
     id="layer1"><g
       id="g2"
       transform="matrix(0.29398148,0,0,0.29398148,4.4097222,4.4097222)"><rect
         x="-15"
         width="972"
         fill="#e1e6ea"
         y="953.82355"
         height="972"
         fill-opacity="1"
         id="rect26"
         style="stroke-width:0.264583" /><g
         clip-path="url(#5b72e7ba7d)"
         id="g68"
         transform="translate(4.6585289,11.1088)" /><g
         clip-path="url(#54be6aae1a)"
         id="g70"
         transform="translate(8.0031138,5.1363267)"><g
           clip-path="url(#94dd935caf)"
           id="g69" /></g><g
         fill="#121221"
         fill-opacity="1"
         id="g28"
         transform="matrix(10.104631,0,0,10.104631,-236.47668,-526.01239)"><g
           transform="translate(22.07377,91.754183)"
           id="g27"><g
             id="g26"><path
               d="m 27.398958,-27.421875 -6.235416,0 a 2.1166667,2.1166667 135 0 0 -2.116667,2.116667 V -2.1166667 A 2.1166667,2.1166667 135 0 1 16.930208,0 H 13.210417 A 2.1166667,2.1166667 45 0 1 11.09375,-2.1166667 V -25.305208 A 2.1166667,2.1166667 45 0 0 8.9770833,-27.421875 H 2.6947917 A 2.1166667,2.1166667 45 0 1 0.578125,-29.538542 v -2.751041 A 2.1166667,2.1166667 135 0 1 2.6947917,-34.40625 H 27.398958 a 2.1166667,2.1166667 45 0 1 2.116667,2.116667 v 2.751041 a 2.1166667,2.1166667 135 0 1 -2.116667,2.116667 z M 0,0"
               id="path26" /></g></g></g><g
         fill="#121221"
         fill-opacity="1"
         id="g31"
         transform="matrix(10.104631,0,0,10.104631,-236.47668,-526.01239)"><g
           transform="translate(47.603979,91.754183)"
           id="g30"><g
             id="g29"><path
               d="m 31.506719,-6.7127396 c -0.07995,0.3439847 -0.180948,0.6748408 -0.30295,0.9925684 -0.417374,1.0869519 -1.631772,2.5971453 -2.56093,3.3015703 -0.256635,0.1945631 -0.52654,0.3772386 -0.809743,0.5480532 -0.999421,0.6028031 -2.802268,1.23958788 -3.944462,1.48409367 -0.556527,0.11913406 -1.127684,0.21058353 -1.71347,0.27454247 C 21.013639,0.01490934 19.114836,0 17.945833,0 H 5.4135417 A 2.1166667,2.1166667 45 0 1 3.296875,-2.1166667 V -32.289583 A 2.1166667,2.1166667 135 0 1 5.4135417,-34.40625 H 20.320833 c 1.169003,0 3.087063,-0.04072 4.208499,0.27599 0.07303,0.02063 0.145488,0.04241 0.217362,0.06534 1.108802,0.353802 2.675835,1.500947 3.416423,2.401363 0.019,0.0231 0.03787,0.0463 0.05663,0.06962 0.730877,0.908609 1.537837,2.65594 1.804629,3.791959 0.0097,0.04122 0.01909,0.08248 0.02822,0.123783 0.251933,1.139165 0.2545,3.063367 -0.01812,4.197334 -0.04801,0.199716 -0.103036,0.398192 -0.165063,0.595445 -0.349985,1.112977 -1.305839,2.789412 -2.132525,3.610839 -0.187621,0.186427 -0.385297,0.363406 -0.593044,0.530919 -0.907655,0.731872 -0.870937,1.34832 0.154717,1.904806 0.438807,0.238083 0.849334,0.50715 1.231724,0.807273 0.91722,0.71989 2.095399,2.252593 2.527795,3.334613 0.220765,0.552437 0.387558,1.145066 0.500266,1.777886 0.204713,1.1493987 0.212457,3.0701662 -0.05163,4.2063404 z M 23.203125,-12.375 C 22.0625,-13.734375 22.0625,-13.734375 22.0625,-13.734375 20.40625,-14.25 20.40625,-14.25 20.40625,-14.25 h -7.055208 a 2.1166667,2.1166667 135 0 0 -2.116667,2.116667 v 3.2822913 a 2.1166667,2.1166667 45 0 0 2.116667,2.1166667 h 4.594791 c 1.169003,0 3.044713,0.055399 3.929167,-0.484375 1.28125,-1.296875 1.28125,-1.296875 1.28125,-1.296875 0.484375,-1.90625 0.484375,-1.90625 0.484375,-1.90625 z m -11.96875,-13.133333 v 2.891666 A 2.1166667,2.1166667 45 0 0 13.351042,-20.5 h 3.579166 c 1.169003,0 2.917847,0.03691 3.741667,-0.375 1.234375,-1.1875 1.234375,-1.1875 1.234375,-1.1875 0.484375,-2.015625 0.484375,-2.015625 0.484375,-2.015625 -0.421875,-1.9375 -0.421875,-1.9375 -0.421875,-1.9375 -1.09375,-1.1875 -1.09375,-1.1875 -1.09375,-1.1875 C 19.328125,-27.625 19.328125,-27.625 19.328125,-27.625 h -5.977083 a 2.1166667,2.1166667 135 0 0 -2.116667,2.116667 z M 0,0"
               id="path28" /></g></g></g><g
         fill="#121221"
         fill-opacity="1"
         id="g34"
         transform="matrix(10.104631,0,0,10.104631,-236.47668,-526.01381)"><g
           transform="translate(77.743144,91.600876)"
           id="g33"><g
             id="g32"><path
               id="path31"
               d="m 6.2045549,-31.099854 c -0.0057,0.165937 -0.00884,0.331944 -0.01417,0.497891 0.022095,-0.08494 0.046145,-0.169328 0.072015,-0.252925 -0.020809,-0.0811 -0.041199,-0.162594 -0.057845,-0.244966 z m -1.4160283,5.662366 a 2.1166667,2.1166667 0 0 0 -2.1165691,2.116763 V -2.1165996 A 2.1166667,2.1166667 0 0 0 4.7885266,1.6361709e-4 H 8.305207 A 2.1166667,2.1166667 0 0 0 10.42197,-2.1165996 V -23.320725 a 2.1166667,2.1166667 0 0 0 -2.116763,-2.116763 z" /></g></g></g><g
         fill="#121221"
         fill-opacity="1"
         id="g37"
         transform="matrix(10.104631,0,0,10.104631,-236.47668,-526.01239)"><g
           transform="translate(86.268475,91.600876)"
           id="g36"><g
             id="g35"><path
               d="m 31.506719,-6.7127396 c -0.07995,0.3439847 -0.180948,0.6748408 -0.30295,0.9925684 -0.417374,1.0869519 -1.631772,2.5971453 -2.56093,3.3015703 -0.256635,0.1945631 -0.52654,0.3772386 -0.809743,0.5480532 -0.999421,0.6028031 -2.802268,1.23958788 -3.944462,1.48409367 -0.556527,0.11913406 -1.127684,0.21058353 -1.71347,0.27454247 C 21.013639,0.01490934 19.114836,0 17.945833,0 H 5.4135417 A 2.1166667,2.1166667 45 0 1 3.296875,-2.1166667 V -32.289583 A 2.1166667,2.1166667 135 0 1 5.4135417,-34.40625 H 20.320833 c 1.169003,0 3.087063,-0.04072 4.208499,0.27599 0.07303,0.02063 0.145488,0.04241 0.217362,0.06534 1.108802,0.353802 2.675835,1.500947 3.416423,2.401363 0.019,0.0231 0.03787,0.0463 0.05663,0.06962 0.730877,0.908609 1.537837,2.65594 1.804629,3.791959 0.0097,0.04122 0.01909,0.08248 0.02822,0.123783 0.251933,1.139165 0.2545,3.063367 -0.01812,4.197334 -0.04801,0.199716 -0.103036,0.398192 -0.165063,0.595445 -0.349985,1.112977 -1.305839,2.789412 -2.132525,3.610839 -0.187621,0.186427 -0.385297,0.363406 -0.593044,0.530919 -0.907655,0.731872 -0.870937,1.34832 0.154717,1.904806 0.438807,0.238083 0.849334,0.50715 1.231724,0.807273 0.91722,0.71989 2.095399,2.252593 2.527795,3.334613 0.220765,0.552437 0.387558,1.145066 0.500266,1.777886 0.204713,1.1493987 0.212457,3.0701662 -0.05163,4.2063404 z M 23.203125,-12.375 C 22.0625,-13.734375 22.0625,-13.734375 22.0625,-13.734375 20.40625,-14.25 20.40625,-14.25 20.40625,-14.25 h -7.055208 a 2.1166667,2.1166667 135 0 0 -2.116667,2.116667 v 3.2822913 a 2.1166667,2.1166667 45 0 0 2.116667,2.1166667 h 4.594791 c 1.169003,0 3.044713,0.055399 3.929167,-0.484375 1.28125,-1.296875 1.28125,-1.296875 1.28125,-1.296875 0.484375,-1.90625 0.484375,-1.90625 0.484375,-1.90625 z m -11.96875,-13.133333 v 2.891666 A 2.1166667,2.1166667 45 0 0 13.351042,-20.5 h 3.579166 c 1.169003,0 2.917847,0.03691 3.741667,-0.375 1.234375,-1.1875 1.234375,-1.1875 1.234375,-1.1875 0.484375,-2.015625 0.484375,-2.015625 0.484375,-2.015625 -0.421875,-1.9375 -0.421875,-1.9375 -0.421875,-1.9375 -1.09375,-1.1875 -1.09375,-1.1875 -1.09375,-1.1875 C 19.328125,-27.625 19.328125,-27.625 19.328125,-27.625 h -5.977083 a 2.1166667,2.1166667 135 0 0 -2.116667,2.116667 z M 0,0"
               id="path34" /></g></g></g><g
         id="g65"
         style="display:none"><g
           fill="#000000"
           fill-opacity="1"
           id="g40"
           transform="matrix(9.0557814,0,0,9.0557814,-179.79521,-187.32848)"><g
             transform="translate(25.636353,101.21403)"
             id="g39"><g
               id="g38"><path
                 d="m 3.546875,-6.828125 c 0.34375,0 0.660156,0.09375 0.953125,0.28125 0.289062,0.1875 0.519531,0.445313 0.6875,0.765625 0.175781,0.3125 0.265625,0.664062 0.265625,1.046875 0,0.386719 -0.089844,0.742187 -0.265625,1.0625 C 5.019531,-3.347656 4.789062,-3.09375 4.5,-2.90625 4.207031,-2.71875 3.890625,-2.625 3.546875,-2.625 h -1.84375 v 2.15625 c 0,0.136719 -0.042969,0.25 -0.125,0.34375 C 1.492188,-0.0390625 1.382812,0 1.25,0 1.113281,0 1.003906,-0.0390625 0.921875,-0.125 0.847656,-0.21875 0.8125,-0.332031 0.8125,-0.46875 v -5.890625 c 0,-0.125 0.039062,-0.234375 0.125,-0.328125 0.09375,-0.09375 0.207031,-0.140625 0.34375,-0.140625 z m 0,3.3125 c 0.164063,0 0.320313,-0.050781 0.46875,-0.15625 C 4.171875,-3.785156 4.289062,-3.9375 4.375,-4.125 c 0.09375,-0.195312 0.140625,-0.398438 0.140625,-0.609375 0,-0.332031 -0.101563,-0.613281 -0.296875,-0.84375 -0.1875,-0.226563 -0.414062,-0.34375 -0.671875,-0.34375 h -1.84375 v 2.40625 z m 0,0"
                 id="path37" /></g></g></g><g
           fill="#000000"
           fill-opacity="1"
           id="g43"
           transform="matrix(9.0557814,0,0,9.0557814,-179.79521,-187.32848)"><g
             transform="translate(37.843529,101.21403)"
             id="g42"><g
               id="g41"><path
                 d="m 1.703125,-0.46875 c 0,0.136719 -0.046875,0.25 -0.140625,0.34375 C 1.46875,-0.0390625 1.359375,0 1.234375,0 c -0.136719,0 -0.25,-0.0390625 -0.34375,-0.125 -0.085937,-0.09375 -0.125,-0.207031 -0.125,-0.34375 V -6.75 c 0,-0.125 0.046875,-0.234375 0.140625,-0.328125 C 1,-7.171875 1.109375,-7.21875 1.234375,-7.21875 c 0.132813,0 0.242187,0.046875 0.328125,0.140625 C 1.65625,-6.984375 1.703125,-6.875 1.703125,-6.75 Z m 0,0"
                 id="path40" /></g></g></g><g
           fill="#000000"
           fill-opacity="1"
           id="g46"
           transform="matrix(9.0557814,0,0,9.0557814,-179.79521,-187.32848)"><g
             transform="translate(46.668496,101.21403)"
             id="g45"><g
               id="g44"><path
                 d="m 4.84375,-5.171875 c 0.132812,0 0.242188,0.046875 0.328125,0.140625 0.082031,0.085938 0.125,0.195312 0.125,0.328125 v 4.234375 c 0,0.136719 -0.042969,0.25 -0.125,0.34375 C 5.085938,-0.0390625 4.976562,0 4.84375,0 4.695312,0 4.582031,-0.0390625 4.5,-0.125 4.414062,-0.21875 4.375,-0.332031 4.375,-0.46875 v -0.25 C 4.207031,-0.488281 3.976562,-0.296875 3.6875,-0.140625 3.394531,0.015625 3.078125,0.09375 2.734375,0.09375 2.296875,0.09375 1.894531,-0.015625 1.53125,-0.234375 1.175781,-0.460938 0.894531,-0.78125 0.6875,-1.1875 0.476562,-1.59375 0.375,-2.050781 0.375,-2.5625 c 0,-0.507812 0.101562,-0.96875 0.3125,-1.375 0.207031,-0.40625 0.488281,-0.71875 0.84375,-0.9375 0.351562,-0.226562 0.742188,-0.34375 1.171875,-0.34375 0.351563,0 0.675781,0.074219 0.96875,0.21875 0.289063,0.136719 0.523437,0.3125 0.703125,0.53125 V -4.703125 C 4.375,-4.835938 4.414062,-4.945312 4.5,-5.03125 4.582031,-5.125 4.695312,-5.171875 4.84375,-5.171875 Z m -2,4.40625 c 0.3125,0 0.582031,-0.078125 0.8125,-0.234375 0.238281,-0.15625 0.425781,-0.367188 0.5625,-0.640625 0.132812,-0.269531 0.203125,-0.578125 0.203125,-0.921875 0,-0.34375 -0.070313,-0.648438 -0.203125,-0.921875 C 4.082031,-3.753906 3.894531,-3.96875 3.65625,-4.125 c -0.230469,-0.164062 -0.5,-0.25 -0.8125,-0.25 -0.304688,0 -0.574219,0.078125 -0.8125,0.234375 -0.242188,0.15625 -0.429688,0.375 -0.5625,0.65625 -0.125,0.273437 -0.1875,0.578125 -0.1875,0.921875 0,0.34375 0.0625,0.652344 0.1875,0.921875 0.132812,0.273437 0.320312,0.484375 0.5625,0.640625 0.238281,0.15625 0.507812,0.234375 0.8125,0.234375 z m 0,0"
                 id="path43" /></g></g></g><g
           fill="#000000"
           fill-opacity="1"
           id="g49"
           transform="matrix(9.0557814,0,0,9.0557814,-179.79521,-187.32848)"><g
             transform="translate(59.012137,101.21403)"
             id="g48"><g
               id="g47"><path
                 d="m 2.078125,-4.203125 v 2.90625 c 0,0.324219 0.144531,0.484375 0.4375,0.484375 0.039063,0 0.097656,-0.007812 0.171875,-0.03125 0.082031,-0.019531 0.148438,-0.03125 0.203125,-0.03125 0.082031,0 0.148437,0.039062 0.203125,0.109375 0.0625,0.074219 0.09375,0.164063 0.09375,0.265625 0,0.136719 -0.078125,0.257812 -0.234375,0.359375 C 2.796875,-0.046875 2.617188,0 2.421875,0 2.210938,0 2.015625,-0.0195312 1.828125,-0.0625 1.648438,-0.113281 1.492188,-0.226562 1.359375,-0.40625 1.222656,-0.59375 1.15625,-0.875 1.15625,-1.25 V -4.203125 H 0.578125 c -0.117187,0 -0.214844,-0.039063 -0.296875,-0.125 -0.085938,-0.082031 -0.125,-0.179687 -0.125,-0.296875 0,-0.125 0.039062,-0.222656 0.125,-0.296875 0.082031,-0.082031 0.179688,-0.125 0.296875,-0.125 H 1.15625 V -5.875 c 0,-0.125 0.039062,-0.234375 0.125,-0.328125 0.082031,-0.09375 0.195312,-0.140625 0.34375,-0.140625 0.125,0 0.226562,0.046875 0.3125,0.140625 C 2.03125,-6.109375 2.078125,-6 2.078125,-5.875 v 0.828125 h 0.8125 c 0.125,0 0.222656,0.042969 0.296875,0.125 0.082031,0.074219 0.125,0.171875 0.125,0.296875 0,0.125 -0.042969,0.230469 -0.125,0.3125 -0.074219,0.074219 -0.171875,0.109375 -0.296875,0.109375 z m 0,0"
                 id="path46" /></g></g></g><g
           fill="#000000"
           fill-opacity="1"
           id="g52"
           transform="matrix(9.0557814,0,0,9.0557814,-179.79521,-187.32848)"><g
             transform="translate(69.074976,101.21403)"
             id="g51"><g
               id="g50"><path
                 d="m 2.875,-6.375 c -0.21875,0 -0.382812,0.070312 -0.484375,0.203125 -0.09375,0.125 -0.140625,0.28125 -0.140625,0.46875 v 0.6875 h 0.96875 c 0.125,0 0.226562,0.042969 0.3125,0.125 0.082031,0.074219 0.125,0.171875 0.125,0.296875 0,0.125 -0.042969,0.230469 -0.125,0.3125 -0.085938,0.074219 -0.1875,0.109375 -0.3125,0.109375 H 2.25 v 3.703125 c 0,0.136719 -0.046875,0.25 -0.140625,0.34375 C 2.023438,-0.0390625 1.914062,0 1.78125,0 1.65625,0 1.546875,-0.0390625 1.453125,-0.125 c -0.085937,-0.09375 -0.125,-0.207031 -0.125,-0.34375 V -4.171875 H 0.71875 c -0.125,0 -0.230469,-0.035156 -0.3125,-0.109375 -0.085938,-0.082031 -0.125,-0.1875 -0.125,-0.3125 0,-0.125 0.039062,-0.222656 0.125,-0.296875 0.082031,-0.082031 0.1875,-0.125 0.3125,-0.125 h 0.609375 v -0.6875 c 0,-0.457031 0.144531,-0.820313 0.4375,-1.09375 C 2.054688,-7.066406 2.46875,-7.203125 3,-7.203125 c 0.21875,0 0.410156,0.042969 0.578125,0.125 0.175781,0.085937 0.265625,0.210937 0.265625,0.375 0,0.125 -0.039062,0.230469 -0.109375,0.3125 C 3.660156,-6.316406 3.570312,-6.28125 3.46875,-6.28125 3.4375,-6.28125 3.363281,-6.289062 3.25,-6.3125 3.101562,-6.351562 2.976562,-6.375 2.875,-6.375 Z m 0,0"
                 id="path49" /></g></g></g><g
           fill="#000000"
           fill-opacity="1"
           id="g55"
           transform="matrix(9.0557814,0,0,9.0557814,-179.79521,-187.32848)"><g
             transform="translate(79.235286,101.21403)"
             id="g54"><g
               id="g53"><path
                 d="m 5.53125,-2.546875 c 0,0.5 -0.117188,0.953125 -0.34375,1.359375 C 4.957031,-0.78125 4.644531,-0.460938 4.25,-0.234375 3.863281,-0.015625 3.429688,0.09375 2.953125,0.09375 2.484375,0.09375 2.050781,-0.015625 1.65625,-0.234375 1.257812,-0.460938 0.945312,-0.78125 0.71875,-1.1875 0.488281,-1.59375 0.375,-2.046875 0.375,-2.546875 c 0,-0.507813 0.113281,-0.96875 0.34375,-1.375 0.226562,-0.414063 0.539062,-0.734375 0.9375,-0.953125 0.394531,-0.226562 0.828125,-0.34375 1.296875,-0.34375 0.476563,0 0.910156,0.117188 1.296875,0.34375 0.394531,0.21875 0.707031,0.539062 0.9375,0.953125 0.226562,0.40625 0.34375,0.867187 0.34375,1.375 z m -0.921875,0 c 0,-0.351563 -0.078125,-0.664063 -0.234375,-0.9375 -0.148438,-0.28125 -0.34375,-0.5 -0.59375,-0.65625 C 3.53125,-4.296875 3.253906,-4.375 2.953125,-4.375 2.648438,-4.375 2.375,-4.296875 2.125,-4.140625 c -0.25,0.15625 -0.449219,0.375 -0.59375,0.65625 -0.148438,0.273437 -0.21875,0.585937 -0.21875,0.9375 0,0.34375 0.070312,0.652344 0.21875,0.921875 0.144531,0.273438 0.34375,0.484375 0.59375,0.640625 0.25,0.148437 0.523438,0.21875 0.828125,0.21875 0.300781,0 0.578125,-0.070313 0.828125,-0.21875 0.25,-0.15625 0.445312,-0.367187 0.59375,-0.640625 0.15625,-0.269531 0.234375,-0.578125 0.234375,-0.921875 z m 0,0"
                 id="path52" /></g></g></g><g
           fill="#000000"
           fill-opacity="1"
           id="g58"
           transform="matrix(9.0557814,0,0,9.0557814,-179.79521,-187.32848)"><g
             transform="translate(91.500949,101.21403)"
             id="g57"><g
               id="g56"><path
                 d="m 3.234375,-5.21875 c 0.164063,0 0.3125,0.042969 0.4375,0.125 0.125,0.085938 0.1875,0.195312 0.1875,0.328125 0,0.15625 -0.042969,0.277344 -0.125,0.359375 -0.074219,0.074219 -0.171875,0.109375 -0.296875,0.109375 -0.054688,0 -0.140625,-0.015625 -0.265625,-0.046875 -0.136719,-0.050781 -0.242187,-0.078125 -0.3125,-0.078125 -0.210937,0 -0.40625,0.074219 -0.59375,0.21875 C 2.078125,-4.066406 1.921875,-3.875 1.796875,-3.625 1.679688,-3.382812 1.625,-3.113281 1.625,-2.8125 v 2.34375 c 0,0.136719 -0.046875,0.25 -0.140625,0.34375 C 1.398438,-0.0390625 1.289062,0 1.15625,0 1.019531,0 0.90625,-0.0390625 0.8125,-0.125 0.726562,-0.21875 0.6875,-0.332031 0.6875,-0.46875 v -4.171875 c 0,-0.132813 0.039062,-0.242187 0.125,-0.328125 0.09375,-0.09375 0.207031,-0.140625 0.34375,-0.140625 0.132812,0 0.242188,0.046875 0.328125,0.140625 0.09375,0.085938 0.140625,0.195312 0.140625,0.328125 v 0.5 C 1.757812,-4.460938 1.96875,-4.722656 2.25,-4.921875 2.539062,-5.117188 2.867188,-5.21875 3.234375,-5.21875 Z m 0,0"
                 id="path55" /></g></g></g><g
           fill="#000000"
           fill-opacity="1"
           id="g61"
           transform="matrix(9.0557814,0,0,9.0557814,-179.79521,-187.32848)"><g
             transform="translate(101.88544,101.21403)"
             id="g60"><g
               id="g59"><path
                 d="m 6.546875,-5.203125 c 1.144531,0 1.71875,0.710937 1.71875,2.125 v 2.609375 c 0,0.136719 -0.046875,0.25 -0.140625,0.34375 C 8.039062,-0.0390625 7.929688,0 7.796875,0 c -0.136719,0 -0.25,-0.0390625 -0.34375,-0.125 -0.085937,-0.09375 -0.125,-0.207031 -0.125,-0.34375 V -3.0625 c 0,-0.851562 -0.355469,-1.28125 -1.0625,-1.28125 -0.261719,0 -0.496094,0.058594 -0.703125,0.171875 -0.199219,0.117187 -0.355469,0.273437 -0.46875,0.46875 -0.117188,0.199219 -0.171875,0.414063 -0.171875,0.640625 v 2.59375 c 0,0.136719 -0.046875,0.25 -0.140625,0.34375 C 4.695312,-0.0390625 4.585938,0 4.453125,0 4.316406,0 4.207031,-0.0390625 4.125,-0.125 4.039062,-0.21875 4,-0.332031 4,-0.46875 V -3.078125 C 4,-3.453125 3.914062,-3.753906 3.75,-3.984375 3.59375,-4.222656 3.320312,-4.34375 2.9375,-4.34375 c -0.375,0 -0.6875,0.125 -0.9375,0.375 -0.25,0.242188 -0.375,0.539062 -0.375,0.890625 v 2.609375 c 0,0.136719 -0.046875,0.25 -0.140625,0.34375 C 1.398438,-0.0390625 1.289062,0 1.15625,0 1.019531,0 0.90625,-0.0390625 0.8125,-0.125 0.726562,-0.21875 0.6875,-0.332031 0.6875,-0.46875 v -4.171875 c 0,-0.132813 0.039062,-0.242187 0.125,-0.328125 0.09375,-0.09375 0.207031,-0.140625 0.34375,-0.140625 0.132812,0 0.242188,0.046875 0.328125,0.140625 0.09375,0.085938 0.140625,0.195312 0.140625,0.328125 v 0.34375 c 0.164062,-0.257813 0.390625,-0.472656 0.671875,-0.640625 0.28125,-0.175781 0.585937,-0.265625 0.921875,-0.265625 0.800781,0 1.320312,0.359375 1.5625,1.078125 0.144531,-0.269531 0.382812,-0.515625 0.71875,-0.734375 0.332031,-0.226563 0.679688,-0.34375 1.046875,-0.34375 z m 0,0"
                 id="path58" /></g></g></g><g
           fill="#000000"
           fill-opacity="1"
           id="g64"
           transform="matrix(9.0557814,0,0,9.0557814,-179.79521,-187.32848)"><g
             transform="translate(117.19217,101.21403)"
             id="g63"><g
               id="g62"><path
                 d="M 0.40625,-0.796875 C 0.34375,-0.890625 0.3125,-0.976562 0.3125,-1.0625 c 0,-0.125 0.066406,-0.234375 0.203125,-0.328125 0.0625,-0.050781 0.132813,-0.078125 0.21875,-0.078125 0.125,0 0.234375,0.054688 0.328125,0.15625 0.195312,0.21875 0.40625,0.386719 0.625,0.5 0.226562,0.105469 0.5,0.15625 0.8125,0.15625 0.238281,0 0.453125,-0.050781 0.640625,-0.15625 0.195313,-0.113281 0.296875,-0.289062 0.296875,-0.53125 0,-0.21875 -0.101562,-0.382812 -0.296875,-0.5 -0.1875,-0.125 -0.46875,-0.234375 -0.84375,-0.328125 C 1.929688,-2.273438 1.628906,-2.378906 1.390625,-2.484375 1.148438,-2.585938 0.945312,-2.738281 0.78125,-2.9375 c -0.167969,-0.207031 -0.25,-0.476562 -0.25,-0.8125 0,-0.289062 0.082031,-0.546875 0.25,-0.765625 0.164062,-0.226563 0.382812,-0.398437 0.65625,-0.515625 0.28125,-0.125 0.582031,-0.1875 0.90625,-0.1875 0.3125,0 0.625,0.058594 0.9375,0.171875 0.3125,0.117187 0.5625,0.292969 0.75,0.53125 0.082031,0.09375 0.125,0.1875 0.125,0.28125 0,0.105469 -0.054688,0.210937 -0.15625,0.3125 -0.0625,0.054687 -0.148438,0.078125 -0.25,0.078125 -0.117188,0 -0.210938,-0.035156 -0.28125,-0.109375 -0.136719,-0.15625 -0.304688,-0.273437 -0.5,-0.359375 -0.199219,-0.09375 -0.417969,-0.140625 -0.65625,-0.140625 -0.25,0 -0.464844,0.054687 -0.640625,0.15625 -0.167969,0.105469 -0.25,0.277344 -0.25,0.515625 0.00781,0.230469 0.109375,0.402344 0.296875,0.515625 0.195312,0.105469 0.492188,0.210937 0.890625,0.3125 0.34375,0.09375 0.625,0.195313 0.84375,0.296875 C 3.679688,-2.550781 3.875,-2.394531 4.03125,-2.1875 4.1875,-1.988281 4.265625,-1.722656 4.265625,-1.390625 4.265625,-1.085938 4.175781,-0.820312 4,-0.59375 3.832031,-0.375 3.601562,-0.203125 3.3125,-0.078125 3.03125,0.0351562 2.734375,0.09375 2.421875,0.09375 2.003906,0.09375 1.625,0.0234375 1.28125,-0.109375 c -0.34375,-0.144531 -0.636719,-0.375 -0.875,-0.6875 z m 0,0"
                 id="path61" /></g></g></g></g><g
         clip-path="url(#629caa9acd)"
         id="g67"
         transform="matrix(10.104631,0,0,10.104631,-236.47668,-526.01239)"><g
           clip-path="url(#db4b3548d2)"
           id="g66"><path
             fill="#121221"
             d="m 22.511719,57.300781 h 8.589843 v 7.050781 h -8.589843 z m 0,0"
             fill-opacity="1"
             fill-rule="nonzero"
             id="path65" /></g></g><g
         clip-path="url(#ed7693783c)"
         id="g77"
         transform="matrix(10.104631,0,0,10.104631,-236.47668,-526.01239)"><g
           clip-path="url(#4b3818807a)"
           id="g76"><g
             clip-path="url(#0b21996ba4)"
             id="g75"><path
               fill="#e1e6ea"
               d="m 77.589844,85.839844 c 1.332031,-0.640625 2.589844,-1.253906 3.300781,-1.601563 1.113281,1.4375 3.21875,2.363281 6.179687,2.523438 2.378907,0.125 4.472657,-0.277344 4.472657,-0.277344 0,0 0.05078,-0.175781 0.08203,-0.390625 0.570312,-0.144531 1.355469,-0.371094 2.332031,-0.675781 0.02734,0.07422 0.03125,0.121093 0.03125,0.121093 l 2.1875,-0.699218 c 0,0 0.04687,-0.07422 0.09375,-0.1875 6.53906,-2.324219 8.76563,-4.886719 9.4961,-5.496094 0.77343,-0.640625 0.71875,-1.261719 0.82421,-2.003906 0.0781,-0.546875 -0.16406,-2.132813 -0.30078,-2.9375 0.10547,-0.144532 0.14453,-0.265625 0.14453,-0.265625 0,0 -0.16406,-1.191407 -0.77343,-2.273438 -0.33985,-0.601562 -1.42188,-0.390625 -1.71094,-0.246093 -0.29297,0.144531 -0.64063,0.382812 -0.53125,0.933593 0.10937,0.550781 0.95312,2.019531 1.25781,2.265625 0.24219,0.05469 0.44922,0.07031 0.62891,0.0625 0.16015,0.941406 0.46875,2.933594 0.27734,3.335938 -0.21484,0.449218 -2.17578,3.054687 -9.832031,5.648437 -0.125,-0.03516 -0.273438,-0.0625 -0.445312,-0.08203 l -0.01953,-0.05078 c 0,0 -0.40625,0.148437 -1.042968,0.285156 -2.957032,0.644531 -6.042969,0.08984 -7.066407,-3.421875 -0.902343,-3.097656 0.945313,-6.570312 2.800781,-8.921875 0.4375,-0.554687 0.746094,-0.875 0.746094,-0.875 l -0.03125,-0.03516 0.08594,-0.06641 c 0,0 0.148437,-0.15625 0.207031,-0.359374 5.363281,-4.171876 8.734375,-5.566407 10.000002,-4.863282 1.38281,0.769532 1.70703,2.203125 1.77343,2.445313 -0.28125,0.148437 -0.54297,0.351562 -0.51953,0.566406 0.15625,1.480469 0.62891,2.425781 0.62891,2.425781 0,0 -0.0352,0.230469 1.07812,0.117188 1.11328,-0.113282 1.19532,-0.933594 1.19532,-0.933594 -0.22266,-0.933594 -0.67579,-1.835938 -0.89454,-2.226562 -0.13281,-0.234376 -0.35156,-0.28125 -0.57031,-0.257813 0.008,-0.02734 0.0117,-0.04687 0.0117,-0.04687 -0.008,0.171875 -0.63672,-2.164062 -2.66797,-3.015625 -1.640621,-0.683594 -7.242183,1.695313 -14.976558,8.417969 -0.1875,-0.101563 -0.347657,-0.160156 -0.347657,-0.160156 -1.265624,1.007812 -2.457031,2.238281 -3.457031,3.507812 -1.894531,2.40625 -2.5625,4.644531 -2.144531,6.441406 -1.761719,0.863282 -7.042969,3.441406 -8.070312,3.800782 -1.171876,0.40625 -3.941407,1.089843 -7.089844,-0.816407 -1.539063,-0.9375 -2.441406,-3.917969 -1.296875,-6.214843 0.65625,-1.320313 2.175781,-2.773438 3.175781,-3.875 6.875,-7.558594 -0.238281,-9.796876 1.976562,-13.203126 1.28125,-1.972656 4.105469,-2.746093 6.0625,-2.671874 1.328126,0.05078 5.128907,1.453124 5.210938,1.484374 0,0 0.125,-0.117187 0.257812,-0.277343 l 0.210938,0.08594 c -0.02344,0.148438 -0.04297,0.300782 -0.05078,0.457032 -0.07422,1.988281 1.476562,3.664062 3.464843,3.738281 1.992188,0.07813 3.664063,-1.472657 3.742188,-3.464844 0.07422,-1.988281 -1.476562,-3.664063 -3.464844,-3.738281 -1.464844,-0.05469 -2.753906,0.769531 -3.367187,2 l -0.140609,-0.0586 c 0.01172,-0.253906 -0.0039,-0.476562 -0.0039,-0.476562 C 79.257812,58.796875 76.375,57.792969 74.921875,57.738281 72.65625,57.652344 69.027344,58.5 67.238281,61.25 c -1.632812,2.511719 -0.01563,4.691406 0.644531,7.054688 1.113282,3.988281 -4.265624,6.917968 -5.902343,10.207031 -1.496094,3.007812 -0.503907,7.101562 1.996093,8.617187 5.226563,3.171875 8.980469,0.9375 13.613282,-1.289062 z m 0,0"
               fill-opacity="1"
               fill-rule="nonzero"
               id="path74" /></g></g></g><g
         clip-path="url(#b905298338)"
         id="g80"
         transform="matrix(10.104631,0,0,10.104631,-236.47668,-526.01239)"><g
           clip-path="url(#5e62141ac3)"
           id="g79"><g
             clip-path="url(#21aebc310b)"
             id="g78"><path
               fill="#121221"
               d="m 77.597656,85.816406 c 1.332032,-0.640625 2.589844,-1.253906 3.300782,-1.601562 1.113281,1.4375 3.21875,2.367187 6.179687,2.523437 2.378906,0.128907 4.472656,-0.277343 4.472656,-0.277343 0,0 0.05078,-0.175782 0.08203,-0.390626 0.570313,-0.140624 1.355469,-0.367187 2.332032,-0.675781 0.02734,0.07813 0.03125,0.125 0.03125,0.125 l 2.1875,-0.703125 c 0,0 0.04687,-0.07422 0.09375,-0.183594 6.539067,-2.328124 8.765627,-4.890624 9.496097,-5.5 0.77344,-0.636718 0.71875,-1.261718 0.82422,-2.003906 0.0781,-0.546875 -0.16407,-2.132812 -0.30078,-2.9375 0.10546,-0.144531 0.14453,-0.261718 0.14453,-0.261718 0,0 -0.16407,-1.195313 -0.77344,-2.273438 -0.33984,-0.605469 -1.42188,-0.394531 -1.71094,-0.25 -0.29297,0.144531 -0.64062,0.382812 -0.53125,0.933594 0.10938,0.550781 0.95313,2.019531 1.25781,2.265625 0.24219,0.05859 0.44922,0.07422 0.62891,0.06641 0.16016,0.9375 0.46875,2.929687 0.27734,3.335937 -0.21484,0.449219 -2.17578,3.054688 -9.832029,5.648438 -0.125,-0.03906 -0.273437,-0.06641 -0.445312,-0.08203 l -0.01953,-0.05469 c 0,0 -0.40625,0.148438 -1.042969,0.289063 -2.960938,0.640625 -6.042969,0.08594 -7.066406,-3.425782 -0.902344,-3.09375 0.941406,-6.570312 2.800781,-8.921874 0.4375,-0.554688 0.746094,-0.875 0.746094,-0.875 l -0.03125,-0.03125 0.08203,-0.07031 c 0,0 0.152344,-0.15625 0.207031,-0.359375 5.367188,-4.167969 8.738281,-5.566406 10.00391,-4.859375 1.38281,0.769531 1.70703,2.199219 1.76953,2.441406 -0.27734,0.148438 -0.53906,0.351563 -0.51563,0.566407 0.15625,1.480468 0.62891,2.425781 0.62891,2.425781 0,0 -0.0352,0.234375 1.07813,0.117187 1.11328,-0.113281 1.19531,-0.929687 1.19531,-0.929687 -0.22656,-0.9375 -0.67578,-1.839844 -0.89453,-2.226563 -0.13282,-0.238281 -0.35157,-0.28125 -0.57032,-0.261718 0.008,-0.02734 0.0117,-0.04688 0.0117,-0.04688 -0.008,0.171876 -0.63672,-2.164062 -2.66797,-3.011718 -1.640622,-0.6875 -7.242185,1.695312 -14.97656,8.414062 -0.1875,-0.101562 -0.347656,-0.160156 -0.347656,-0.160156 -1.265625,1.007812 -2.457031,2.242188 -3.457031,3.507812 -1.898438,2.40625 -2.5625,4.644532 -2.144532,6.445313 -1.761718,0.863281 -7.042968,3.4375 -8.070312,3.796875 -1.171875,0.410156 -3.941406,1.09375 -7.089844,-0.816406 C 63.402344,84.59375 62.5,81.613281 63.644531,79.3125 c 0.65625,-1.320312 2.175781,-2.773438 3.175781,-3.871094 6.871094,-7.558594 -0.238281,-9.800781 1.976563,-13.207031 1.28125,-1.96875 4.105469,-2.746094 6.0625,-2.671875 1.328125,0.05078 5.128906,1.453125 5.210937,1.484375 0,0 0.125,-0.117187 0.257813,-0.273437 l 0.210937,0.08203 c -0.02344,0.152343 -0.04297,0.304687 -0.05078,0.457031 -0.07422,1.992188 1.476563,3.664062 3.464844,3.742188 1.988281,0.07422 3.664063,-1.476563 3.742187,-3.464844 0.07422,-1.992188 -1.476562,-3.664063 -3.46875,-3.742188 -1.460937,-0.05469 -2.75,0.769532 -3.363281,2 l -0.140625,-0.05469 c 0.01172,-0.257813 -0.0039,-0.476563 -0.0039,-0.476563 -1.453125,-0.542968 -4.335938,-1.546875 -5.789062,-1.601562 -2.265626,-0.08594 -5.894532,0.761718 -7.683594,3.511718 -1.632813,2.511719 -0.01563,4.695313 0.644531,7.058594 1.113281,3.988282 -4.265625,6.914063 -5.902344,10.203125 -1.496093,3.007813 -0.503906,7.101563 1.996094,8.621094 5.226563,3.167969 8.980469,0.9375 13.613281,-1.292969 z m 0,0"
               fill-opacity="1"
               fill-rule="nonzero"
               id="path77" /></g></g></g><g
         clip-path="url(#31639f05cb)"
         id="g83"
         transform="matrix(10.104631,0,0,10.104631,-236.47668,-526.01239)"><g
           clip-path="url(#af714d3235)"
           id="g82"><g
             clip-path="url(#f6a108949f)"
             id="g81"><path
               fill="#121221"
               d="m 77.597656,85.820312 c 1.328125,-0.636718 2.589844,-1.253906 3.300782,-1.601562 1.113281,1.441406 3.21875,2.367188 6.179687,2.523438 2.378906,0.128906 4.472656,-0.277344 4.472656,-0.277344 0,0 0.05078,-0.175782 0.08203,-0.390625 0.570313,-0.140625 1.355469,-0.367188 2.332032,-0.671875 0.02734,0.07422 0.03125,0.121094 0.03125,0.121094 l 2.183594,-0.699219 c 0,0 0.05078,-0.07422 0.09766,-0.1875 6.539063,-2.324219 8.765623,-4.890625 9.496093,-5.496094 0.76953,-0.640625 0.71875,-1.265625 0.82422,-2.007813 0.0781,-0.542968 -0.16797,-2.132812 -0.30078,-2.9375 0.10546,-0.140624 0.14453,-0.261718 0.14453,-0.261718 0,0 -0.16407,-1.195313 -0.77344,-2.273438 -0.33984,-0.601562 -1.42188,-0.394531 -1.71484,-0.25 -0.28907,0.148438 -0.63672,0.382813 -0.52735,0.933594 0.10938,0.550781 0.95313,2.019531 1.25391,2.265625 0.24219,0.05859 0.45312,0.07422 0.63281,0.06641 0.16016,0.9375 0.46875,2.929688 0.27344,3.335938 -0.21094,0.449219 -2.17578,3.054687 -9.828125,5.648437 -0.125,-0.03516 -0.273437,-0.06641 -0.445312,-0.08203 l -0.01953,-0.05469 c 0,0 -0.40625,0.152343 -1.042969,0.289062 -2.960938,0.644531 -6.042969,0.08984 -7.066406,-3.421875 -0.90625,-3.097656 0.941406,-6.570313 2.800781,-8.921875 0.4375,-0.558594 0.746094,-0.878906 0.746094,-0.878906 l -0.03125,-0.03125 0.08203,-0.07031 c 0,0 0.152344,-0.152343 0.207031,-0.355469 5.367188,-4.171874 8.738281,-5.566406 10.003906,-4.863281 1.38281,0.769531 1.70703,2.203125 1.76953,2.445313 -0.27734,0.148437 -0.53906,0.347656 -0.51563,0.566406 0.15235,1.476562 0.625,2.421875 0.625,2.421875 0,0 -0.0352,0.234375 1.07813,0.121094 1.11328,-0.113281 1.19922,-0.933594 1.19922,-0.933594 -0.22656,-0.9375 -0.67578,-1.835937 -0.89453,-2.226563 -0.13282,-0.238281 -0.35157,-0.28125 -0.57422,-0.257812 0.008,-0.03125 0.0117,-0.05078 0.0117,-0.05078 -0.004,0.171875 -0.63282,-2.164063 -2.66407,-3.011719 -1.640618,-0.683594 -7.246087,1.695312 -14.976556,8.414062 -0.1875,-0.09766 -0.347656,-0.15625 -0.347656,-0.15625 -1.265625,1.007813 -2.460937,2.238282 -3.457031,3.503907 -1.898438,2.410156 -2.5625,4.648437 -2.144532,6.445312 -1.761718,0.863281 -7.042968,3.441407 -8.070312,3.796875 -1.175781,0.410156 -3.941406,1.09375 -7.089844,-0.816406 -1.542951,-0.9336 -2.441389,-3.914068 -1.300764,-6.210944 0.660156,-1.320312 2.179687,-2.777343 3.179687,-3.875 6.871094,-7.558593 -0.238281,-9.796874 1.976563,-13.207031 1.28125,-1.96875 4.105469,-2.746093 6.0625,-2.671875 1.328125,0.05078 5.128906,1.453125 5.210937,1.484375 0,0 0.125,-0.117187 0.257813,-0.273437 l 0.210937,0.08203 c -0.02734,0.152344 -0.04687,0.304687 -0.05078,0.460937 -0.07422,1.988282 1.476563,3.664063 3.464844,3.738282 1.988281,0.07813 3.664063,-1.476563 3.738281,-3.464844 0.07813,-1.988281 -1.472656,-3.664062 -3.464844,-3.738281 -1.460937,-0.05859 -2.75,0.769531 -3.363281,2 l -0.144531,-0.05859 c 0.01563,-0.257813 -0.0039,-0.476563 -0.0039,-0.476563 -1.449219,-0.542968 -4.335938,-1.542968 -5.785156,-1.597656 -2.269532,-0.08984 -5.894532,0.761719 -7.683594,3.511719 -1.632813,2.507813 -0.01563,4.691406 0.644531,7.054687 1.113281,3.988282 -4.265625,6.917969 -5.902344,10.207032 -1.496093,3.003906 -0.503906,7.101562 1.996094,8.617187 5.226563,3.167969 8.980469,0.9375 13.613281,-1.292969 z m 0,0"
               fill-opacity="1"
               fill-rule="nonzero"
               id="path80" /></g></g></g><g
         clip-path="url(#ca46555a63)"
         id="g86"
         transform="matrix(10.104631,0,0,10.104631,-236.47668,-526.01239)"><g
           clip-path="url(#a8e1cb8cdd)"
           id="g85"><g
             clip-path="url(#f6864df81a)"
             id="g84"><path
               fill="#121221"
               d="m 77.597656,85.816406 c 1.332032,-0.640625 2.589844,-1.253906 3.300782,-1.601562 1.113281,1.4375 3.21875,2.363281 6.179687,2.523437 2.378906,0.125 4.472656,-0.277343 4.472656,-0.277343 0,0 0.05078,-0.175782 0.08203,-0.390626 0.570313,-0.144531 1.355469,-0.371093 2.332032,-0.675781 0.02734,0.07422 0.03125,0.121094 0.03125,0.121094 l 2.1875,-0.699219 c 0,0 0.04687,-0.07422 0.09375,-0.1875 6.539067,-2.324218 8.765627,-4.886718 9.496097,-5.496094 0.77344,-0.640624 0.71875,-1.261718 0.82422,-2.003906 0.0781,-0.546875 -0.16407,-2.132812 -0.30078,-2.9375 0.10546,-0.144531 0.14453,-0.265625 0.14453,-0.265625 0,0 -0.16407,-1.191406 -0.77344,-2.273437 -0.33984,-0.601563 -1.42188,-0.390625 -1.71094,-0.246094 -0.29297,0.144531 -0.64062,0.382812 -0.53125,0.933594 0.10938,0.550781 0.95313,2.019531 1.25781,2.265625 0.24219,0.05469 0.44922,0.07031 0.62891,0.0625 0.16016,0.941406 0.46875,2.933593 0.27734,3.335937 -0.21484,0.449219 -2.17578,3.054688 -9.832029,5.648438 -0.125,-0.03516 -0.273437,-0.0625 -0.445312,-0.08203 l -0.01953,-0.05078 c 0,0 -0.40625,0.148438 -1.042969,0.285157 -2.957031,0.644531 -6.042969,0.08984 -7.066406,-3.421876 -0.902344,-3.097656 0.945312,-6.570312 2.800781,-8.921874 0.4375,-0.554688 0.746094,-0.875 0.746094,-0.875 l -0.03125,-0.03516 0.08594,-0.06641 c 0,0 0.148438,-0.15625 0.207032,-0.359375 5.363281,-4.171875 8.734374,-5.566406 9.999999,-4.863281 1.38281,0.769531 1.70703,2.203125 1.77344,2.445312 -0.28125,0.148438 -0.54297,0.351563 -0.51954,0.566407 0.15625,1.480468 0.62891,2.425781 0.62891,2.425781 0,0 -0.0352,0.230469 1.07813,0.117187 1.11328,-0.113281 1.19531,-0.933594 1.19531,-0.933594 -0.22266,-0.933593 -0.67578,-1.835937 -0.89453,-2.226562 -0.13282,-0.234375 -0.35157,-0.28125 -0.57032,-0.257812 0.008,-0.02734 0.0117,-0.04688 0.0117,-0.04688 -0.008,0.171876 -0.63672,-2.164062 -2.66797,-3.015624 -1.640618,-0.683594 -7.242181,1.695312 -14.976556,8.417968 -0.1875,-0.101562 -0.347656,-0.160156 -0.347656,-0.160156 -1.265625,1.007812 -2.457031,2.238281 -3.457031,3.507812 -1.894532,2.40625 -2.5625,4.644532 -2.144532,6.441407 -1.761718,0.867187 -7.042968,3.441406 -8.070312,3.800781 C 70.859375,86.75 68.089844,87.433594 64.941406,85.527344 63.402344,84.589844 62.5,81.609375 63.644531,79.3125 c 0.65625,-1.320312 2.175781,-2.773438 3.175781,-3.875 6.875,-7.558594 -0.238281,-9.796875 1.976563,-13.203125 1.28125,-1.972656 4.105469,-2.746094 6.0625,-2.671875 1.328125,0.05078 5.128906,1.453125 5.210937,1.484375 0,0 0.125,-0.117187 0.257813,-0.277344 l 0.210937,0.08594 c -0.02344,0.148437 -0.04297,0.300781 -0.05078,0.457031 -0.07422,1.988281 1.476563,3.664062 3.464844,3.738281 1.992187,0.07813 3.664063,-1.472656 3.742187,-3.464843 0.07422,-1.988282 -1.476562,-3.664063 -3.464843,-3.738282 -1.464844,-0.05469 -2.753907,0.769532 -3.367188,2 l -0.140625,-0.05859 c 0.01172,-0.253906 -0.0039,-0.476562 -0.0039,-0.476562 -1.453125,-0.539062 -4.335938,-1.542969 -5.789062,-1.597656 -2.265626,-0.08594 -5.894532,0.761718 -7.683594,3.511718 -1.632813,2.511719 -0.01563,4.691407 0.644531,7.054688 1.113281,3.988281 -4.265625,6.917969 -5.902344,10.207031 -1.496093,3.007813 -0.503906,7.101563 1.996094,8.617188 5.226563,3.171875 8.980469,0.9375 13.613281,-1.289063 z m 0,0"
               fill-opacity="1"
               fill-rule="nonzero"
               id="path83" /></g></g></g><g
         clip-path="url(#0459ae9d8a)"
         id="g89"
         transform="matrix(10.104631,0,0,10.104631,-236.47668,-526.01239)"><g
           clip-path="url(#22afe30075)"
           id="g88"><g
             clip-path="url(#b2057e0045)"
             id="g87"><path
               fill="#121221"
               d="m 77.59375,85.820312 c 1.328125,-0.640624 2.585938,-1.257812 3.296875,-1.605468 1.117187,1.441406 3.222656,2.367187 6.179687,2.523437 2.378907,0.128907 4.476563,-0.277343 4.476563,-0.277343 0,0 0.04687,-0.175782 0.08203,-0.390626 0.570313,-0.140624 1.355469,-0.367187 2.328125,-0.671874 0.03125,0.07422 0.03125,0.121093 0.03125,0.121093 l 2.1875,-0.699219 c 0,0 0.05078,-0.07422 0.09766,-0.1875 6.53906,-2.324218 8.76172,-4.890624 9.49609,-5.496093 0.76953,-0.640625 0.71485,-1.261719 0.82031,-2.007813 0.0781,-0.542968 -0.16406,-2.132812 -0.29687,-2.9375 0.10547,-0.140625 0.14062,-0.261718 0.14062,-0.261718 0,0 -0.16015,-1.195313 -0.76953,-2.273438 -0.33984,-0.601562 -1.42187,-0.394531 -1.71484,-0.25 -0.29297,0.148438 -0.64063,0.382812 -0.53125,0.933594 0.10937,0.550781 0.95703,2.019531 1.25781,2.265625 0.24219,0.05859 0.44922,0.07422 0.63281,0.06641 0.16016,0.9375 0.46485,2.929687 0.27344,3.335937 -0.21094,0.449219 -2.17578,3.054688 -9.832028,5.648438 -0.121094,-0.03516 -0.269531,-0.06641 -0.445312,-0.08203 l -0.01563,-0.05469 c 0,0 -0.410156,0.152344 -1.046874,0.289063 -2.957032,0.644531 -6.039063,0.08984 -7.066407,-3.421875 -0.902343,-3.097657 0.945313,-6.570313 2.804688,-8.921875 0.4375,-0.554688 0.742187,-0.878906 0.742187,-0.878906 l -0.03125,-0.03125 0.08594,-0.07031 c 0,0 0.148437,-0.152344 0.207031,-0.355469 5.363281,-4.171875 8.738281,-5.566406 10.003905,-4.863281 1.37891,0.769531 1.70313,2.203125 1.76953,2.445313 -0.27734,0.148437 -0.53906,0.347656 -0.51562,0.566406 0.15234,1.476562 0.625,2.421875 0.625,2.421875 0,0 -0.0352,0.234375 1.07812,0.121093 1.11328,-0.113281 1.19532,-0.933593 1.19532,-0.933593 -0.22266,-0.9375 -0.67188,-1.835938 -0.89063,-2.226563 -0.13672,-0.238281 -0.35547,-0.28125 -0.57422,-0.257812 0.008,-0.03125 0.0117,-0.05078 0.0117,-0.05078 -0.008,0.171876 -0.63672,-2.164062 -2.66406,-3.011718 -1.640628,-0.683594 -7.246096,1.695312 -14.976565,8.417968 -0.191406,-0.101562 -0.347656,-0.160156 -0.347656,-0.160156 -1.265625,1.007813 -2.460938,2.238282 -3.460938,3.503906 -1.894531,2.410157 -2.558593,4.648438 -2.140625,6.445313 -1.765625,0.863281 -7.046875,3.441406 -8.074218,3.796875 -1.171876,0.410156 -3.9375,1.09375 -7.085938,-0.816406 -1.542969,-0.933594 -2.445312,-3.914063 -1.300781,-6.210938 0.65625,-1.320312 2.179687,-2.777344 3.179687,-3.875 6.871094,-7.558594 -0.242187,-9.796875 1.972656,-13.207031 1.28125,-1.96875 4.109376,-2.746094 6.0625,-2.671875 1.332032,0.05078 5.132813,1.453125 5.214844,1.484375 0,0 0.121094,-0.117187 0.253906,-0.273437 l 0.210938,0.08203 c -0.02344,0.152343 -0.04297,0.304687 -0.04687,0.460937 -0.07813,1.988282 1.472656,3.664063 3.464844,3.738282 1.988281,0.07812 3.664062,-1.476563 3.738281,-3.464844 0.07422,-1.988282 -1.476562,-3.664063 -3.464844,-3.738282 -1.460937,-0.05859 -2.75,0.769532 -3.363281,2 l -0.144531,-0.05859 c 0.01563,-0.257813 -0.0039,-0.476563 -0.0039,-0.476563 -1.453126,-0.542968 -4.335938,-1.542968 -5.789063,-1.597656 -2.265625,-0.08984 -5.894531,0.761719 -7.679687,3.511719 -1.632813,2.507812 -0.01563,4.691406 0.644531,7.054687 1.113281,3.988282 -4.265625,6.917969 -5.90625,10.207032 -1.496094,3.003906 -0.503907,7.101562 1.996093,8.617187 5.230469,3.167969 8.984376,0.9375 13.617188,-1.289063 z m 0,0"
               fill-opacity="1"
               fill-rule="nonzero"
               id="path86" /></g></g></g><path
         style="fill:#121221;fill-opacity:1;stroke-width:36.6058;stroke-linecap:round;stroke-linejoin:round;stroke-miterlimit:4.7"
         d="m 228.72711,53.252197 h 82.0755 L 278.8173,69.546609 Z"
         id="path27" /><path
         style="fill:#121221;fill-opacity:1;stroke-width:36.6058;stroke-linecap:round;stroke-linejoin:round;stroke-miterlimit:4.7"
         d="m 228.72711,53.252197 h 82.0755 L 278.8173,69.546609 Z"
         id="path29" /><path
         style="fill:#121221;fill-opacity:1;stroke-width:36.6058;stroke-linecap:round;stroke-linejoin:round;stroke-miterlimit:4.7"
         d="m 315.65282,123.76522 -82.07518,0.22564 31.94039,-16.38228 z"
         id="path30" /></g></g></svg>
